<svg width="664" height="767" viewBox="0 0 664 767" fill="none" xmlns="http://www.w3.org/2000/svg">
<path d="M5.72021 765.008L23.0302 672.708H35.3102L52.4802 765.008H41.0802L37.7902 744.688H20.7502L17.1302 765.008H5.72021ZM22.4902 733.688H35.7002L29.2602 695.248H28.9202L22.4902 733.688Z" fill="#654E12"/>
<path d="M71.5802 762.658V750.448C75.1102 753.798 78.5302 755.478 81.8402 755.478C84.3002 755.478 86.4002 754.618 88.1502 752.878C89.8902 751.148 90.7702 749.058 90.7702 746.618C90.7702 744.518 90.2802 741.968 89.2902 738.968C88.3102 735.978 85.6602 730.438 81.3402 722.368C77.0202 714.298 74.2202 708.178 72.9202 704.018C71.6202 699.858 70.9702 696.188 70.9702 693.018C70.9702 686.848 72.7202 681.808 76.2402 677.888C79.7502 673.978 84.2302 672.018 89.6902 672.018C92.7802 672.018 96.0602 672.828 99.5502 674.438V685.578C96.3302 683.698 93.5802 682.758 91.3002 682.758C85.3502 682.758 82.3802 685.668 82.3802 691.478C82.3802 693.628 82.8802 696.208 83.8902 699.228C84.9002 702.248 87.5602 707.748 91.8702 715.728C96.1902 723.708 98.9802 729.788 100.26 733.978C101.53 738.158 102.17 741.858 102.17 745.078C102.17 751.338 100.41 756.428 96.9002 760.338C93.3902 764.248 88.8402 766.208 83.2502 766.208C79.2302 766.218 75.3402 765.038 71.5802 762.658Z" fill="#654E12"/>
<path d="M134.96 765.008V684.248H120.87V673.248H160.85V684.248H146.76V765.008H134.96Z" fill="#654E12"/>
<path d="M184.31 765.008V673.248H194.17C202.04 673.248 208.04 675.558 212.18 680.188C216.32 684.818 218.38 690.978 218.38 698.668C218.38 707.388 215.2 713.938 208.86 718.318C213.78 721.808 217.96 731.088 221.4 746.158L225.63 765.008H213.26L209.71 749.178C207.18 738.088 204.97 731.038 203.09 728.018C201.21 724.998 198.89 723.648 196.11 723.958V765.008H184.31ZM196.12 712.958H196.66C203.28 712.958 206.59 708.328 206.59 699.078C206.59 689.238 203.1 684.298 196.13 684.258V712.958H196.12Z" fill="#654E12"/>
<path d="M269.49 766.218C262.25 766.218 256.34 762.028 251.78 753.638C247.22 745.258 244.94 733.748 244.94 719.128C244.94 705.308 247.1 694.008 251.41 685.218C255.72 676.428 261.75 672.038 269.49 672.038C277 672.038 282.98 676.418 287.43 685.188C291.88 693.958 294.1 705.268 294.1 719.128C294.1 733.888 291.75 745.428 287.06 753.738C282.37 762.058 276.51 766.218 269.49 766.218ZM269.36 683.038C265.47 683.038 262.48 686.238 260.4 692.648C258.32 699.058 257.28 707.878 257.28 719.128C257.28 730.778 258.35 739.708 260.5 745.908C262.65 752.108 265.69 755.218 269.62 755.218C273.38 755.218 276.34 752.048 278.51 745.708C280.68 739.368 281.76 730.508 281.76 719.128C281.76 707.568 280.66 698.658 278.47 692.418C276.29 686.168 273.25 683.038 269.36 683.038Z" fill="#654E12"/>
<path d="M355.61 748.648V761.058C351.18 764.498 346.51 766.228 341.59 766.228C333.72 766.228 327.64 762.208 323.34 754.158C319.05 746.108 316.9 734.618 316.9 719.678C316.9 704.738 319.06 693.068 323.37 684.658C327.69 676.248 333.84 672.048 341.85 672.048C345.7 672.048 349.92 673.638 354.53 676.808V688.748C350.59 684.948 346.66 683.048 342.72 683.048C337.98 683.048 334.55 685.828 332.42 691.388C330.3 696.948 329.23 706.198 329.23 719.138C329.23 731.948 330.3 741.168 332.45 746.788C334.6 752.408 338.15 755.228 343.12 755.228C346.53 755.218 350.69 753.028 355.61 748.648Z" fill="#654E12"/>
<path d="M380.08 765.008V673.248H391.82V713.628H409.39V673.248H421.13V765.008H409.39V724.628H391.82V765.008H380.08Z" fill="#654E12"/>
<path d="M450.7 765.008V673.248H462.51V765.008H450.7Z" fill="#654E12"/>
<path d="M499.45 765.008V684.248H485.36V673.248H525.34V684.248H511.25V765.008H499.45Z" fill="#654E12"/>
<path d="M548.81 765.008V673.248H558.67C566.54 673.248 572.54 675.558 576.68 680.188C580.82 684.818 582.88 690.978 582.88 698.668C582.88 707.388 579.7 713.938 573.36 718.318C578.28 721.808 582.46 731.088 585.9 746.158L590.13 765.008H577.76L574.21 749.178C571.68 738.088 569.47 731.038 567.59 728.018C565.71 724.998 563.39 723.648 560.61 723.958V765.008H548.81ZM560.61 712.958H561.15C567.77 712.958 571.08 708.328 571.08 699.078C571.08 689.238 567.59 684.298 560.62 684.258V712.958H560.61Z" fill="#654E12"/>
<path d="M605.54 765.008L622.85 672.708H635.13L652.3 765.008H640.9L637.61 744.688H620.57L616.95 765.008H605.54ZM622.31 733.688H635.52L629.08 695.248H628.74L622.31 733.688Z" fill="#654E12"/>
<path d="M65.4 397.038C65.27 397.358 65.14 397.688 65 398.048C65.45 397.858 65.85 397.648 66.2 397.468C65.94 397.328 65.67 397.178 65.4 397.038Z" fill="url(#paint0_linear_20_2)"/>
<path d="M102.43 606.178C104.04 605.728 104.8 604.348 104.34 602.718C103.87 601.098 102.35 600.198 100.82 600.658C99.3301 601.108 98.5001 602.688 98.9601 604.208C99.4201 605.758 100.9 606.598 102.43 606.178Z" fill="url(#paint1_linear_20_2)"/>
<path d="M105.88 617.798C102.9 617.338 100.02 616.898 97.1101 616.448C98.4901 618.178 104.17 619.098 105.88 617.798Z" fill="url(#paint2_linear_20_2)"/>
<path d="M91.2701 585.108C86.2201 579.248 81.1601 573.388 76.1101 567.538C76.0401 567.598 75.9701 567.658 75.9001 567.728C80.5101 573.968 85.4701 579.908 91.2701 585.108Z" fill="url(#paint3_linear_20_2)"/>
<path d="M88.4001 615.958C88.4701 616.038 88.5302 616.128 88.6002 616.188C88.7702 616.318 88.9301 616.468 89.1101 616.568C92.2601 618.308 95.4801 619.918 99.0801 620.448C102.87 621.008 106.68 621.398 110.48 621.928C114.88 622.538 119.29 623.068 123.72 622.618C127.74 622.208 131.74 621.558 135.74 620.938C141.11 620.108 146.49 619.278 151.34 616.568C153.78 615.208 156.41 614.078 158.59 612.388C161.47 610.158 163.99 607.478 166.66 604.978C166.91 604.748 167.12 604.458 167.34 604.198C165.86 605.218 164.52 606.368 163.2 607.538C157.48 612.618 150.86 615.978 143.46 617.758C138.87 618.858 134.21 619.648 129.58 620.578C124.04 621.698 118.49 622.058 112.87 621.228C109.89 620.788 106.88 620.428 103.88 620.288C100.26 620.128 96.8901 619.228 93.6101 617.778C91.9301 617.038 90.2102 616.398 88.5102 615.708C88.4802 615.798 88.4401 615.878 88.4001 615.958Z" fill="url(#paint4_linear_20_2)"/>
<path d="M109.31 596.227C108.67 595.927 108.25 595.727 107.83 595.527C107.97 596.317 108.12 597.047 109.31 596.227Z" fill="url(#paint5_linear_20_2)"/>
<path d="M126.52 619.458C130.17 618.718 133.84 618.088 137.49 617.398C137.73 617.348 137.97 617.238 138.21 617.158C138.23 617.048 138.26 616.948 138.28 616.838C138.14 616.828 137.99 616.798 137.85 616.808C129.21 617.778 120.65 619.758 111.86 618.788C111.53 618.748 111.19 618.888 110.85 618.938C110.85 619.028 110.85 619.118 110.84 619.218C111.31 619.338 111.78 619.488 112.26 619.578C117.03 620.518 121.77 620.428 126.52 619.458Z" fill="url(#paint6_linear_20_2)"/>
<path d="M75.25 613.277C75.18 613.377 75.11 613.477 75.04 613.577C75.53 614.677 76.6 615.277 77.64 615.027C77.25 614.757 76.86 614.487 76.47 614.207C76.06 613.907 75.66 613.587 75.25 613.277Z" fill="url(#paint7_linear_20_2)"/>
<path d="M66.64 589.178C66.38 589.198 66.16 589.748 65.75 590.288C66.29 590.558 66.75 590.928 66.9 590.838C67.23 590.618 67.42 590.168 67.66 589.808C67.32 589.568 66.97 589.148 66.64 589.178Z" fill="url(#paint8_linear_20_2)"/>
<path d="M63.5 604.338C64.51 606.208 65.87 607.738 67.56 608.968C66.64 607.028 65.4 605.388 63.5 604.338Z" fill="url(#paint9_linear_20_2)"/>
<path d="M67.99 580.207C68.33 580.077 68.56 579.647 69.05 579.117C68.38 578.917 67.92 578.617 67.67 578.737C67.38 578.877 67.16 579.387 67.14 579.747C67.13 579.897 67.78 580.287 67.99 580.207Z" fill="url(#paint10_linear_20_2)"/>
<path d="M111.83 615.218C111.97 615.178 112.11 615.148 112.25 615.108C112.37 614.698 112.66 614.238 112.55 613.908C112.45 613.628 111.89 613.338 111.53 613.348C110.88 613.358 110.71 613.918 110.95 614.428C111.11 614.748 111.53 614.958 111.83 615.218Z" fill="url(#paint11_linear_20_2)"/>
<path d="M74.45 613.238C73.66 612.708 73.05 612.288 72.25 611.748C72.4 613.098 73.06 613.528 74.45 613.238Z" fill="url(#paint12_linear_20_2)"/>
<path d="M76.21 604.768C77.43 604.428 78.11 603.138 77.75 601.808C77.34 600.288 76.43 599.778 74.85 600.168C73.45 600.518 72.64 601.838 73.03 603.148C73.39 604.398 74.85 605.148 76.21 604.768Z" fill="url(#paint13_linear_20_2)"/>
<path d="M70.1 505.298C66.85 512.968 65.33 520.998 64.83 529.288C64.39 536.618 65.24 543.738 67.7 550.658C67.94 551.348 68.24 552.018 68.52 552.688C68.62 552.648 68.72 552.618 68.83 552.578C68.78 552.088 68.77 551.598 68.66 551.118C68.11 548.618 67.44 546.148 67.01 543.628C66.42 540.208 65.62 536.758 65.58 533.318C65.49 523.328 67.05 513.598 71.14 504.378C71.25 504.138 71.3 503.868 71.37 503.608C71.26 503.558 71.15 503.508 71.04 503.458C70.73 504.078 70.37 504.668 70.1 505.298Z" fill="url(#paint14_linear_20_2)"/>
<path d="M170.67 607.428C167.3 610.168 163.62 612.548 160.01 614.978C155.08 618.308 149.87 621.168 144.13 622.778C140.9 623.688 137.52 624.038 134.19 624.568C130.37 625.178 126.56 625.978 122.71 626.198C118.8 626.428 114.86 626.048 110.93 625.968C105.19 625.838 99.5901 625.228 94.2401 622.768C89.9901 620.818 85.5101 619.368 81.1301 617.698C81.0201 617.658 80.8801 617.668 80.7601 617.648C80.7201 617.738 80.6701 617.828 80.6301 617.918C81.7201 618.508 82.7701 619.218 83.9201 619.668C90.6201 622.298 97.2201 625.248 104.34 626.618C106.07 626.948 107.84 627.418 109.58 627.388C116.98 627.278 124.39 627.088 131.78 626.748C136.18 626.548 140.55 625.958 144.67 624.218C146.23 623.558 147.81 622.928 149.38 622.288C149.11 622.598 148.79 622.858 148.44 623.038C144.78 624.898 140.93 626.268 136.9 627.028C130.12 628.308 123.25 628.668 116.37 628.808C110.02 628.938 103.73 628.758 97.7701 626.158C97.1601 625.888 96.4801 625.778 95.8401 625.568C91.4301 624.108 87.0201 622.638 82.6101 621.158C81.2301 620.698 79.8601 620.188 78.4801 619.708C78.4401 619.798 78.4001 619.888 78.3701 619.968C78.8601 620.228 79.3301 620.528 79.8401 620.748C81.2601 621.358 82.6701 621.968 84.1101 622.528C88.1701 624.128 92.2401 625.728 96.3201 627.288C100.45 628.858 104.69 630.048 109.14 630.118C112.01 630.158 114.88 630.098 117.75 630.058C123.94 629.968 130.13 630.358 136.23 628.558C143.35 626.458 150.32 624.108 156.36 619.658C160.58 616.548 164.65 613.228 168.87 610.108C172.12 607.708 174.72 604.747 176.96 601.438C177.24 601.018 177.49 600.568 177.75 600.138C177.67 600.088 177.6 600.028 177.52 599.978C177.19 600.358 176.86 600.748 176.51 601.118C174.59 603.258 172.87 605.638 170.67 607.428Z" fill="url(#paint15_linear_20_2)"/>
<path d="M81.4602 587.737C81.3402 587.467 80.9302 587.337 80.6502 587.147C80.5202 587.387 80.4002 587.637 80.2102 588.007C80.5602 588.237 80.8102 588.397 81.0602 588.567C81.2002 588.277 81.5402 587.917 81.4602 587.737Z" fill="url(#paint16_linear_20_2)"/>
<path d="M124.4 625.488C126.7 625.058 129.02 624.708 131.33 624.368C137.99 623.378 144.54 622.058 150.71 619.188C156.87 616.318 162.3 612.418 167.17 607.698C166.73 607.978 166.27 608.238 165.85 608.548C163.91 609.978 161.98 611.418 160.04 612.858C154.64 616.858 148.76 619.878 142.13 621.158C137.12 622.118 132.04 622.708 127 623.578C121.09 624.598 115.21 624.418 109.32 623.508C105.32 622.888 101.34 622.188 97.35 621.528C97.08 621.488 96.81 621.478 96.25 621.418C98.07 622.668 99.63 623.728 101.57 623.978C106 624.558 110.42 625.168 114.86 625.658C118.04 626.008 121.23 626.078 124.4 625.488Z" fill="url(#paint17_linear_20_2)"/>
<path d="M33.6002 545.128C34.3702 544.018 34.5502 541.228 33.9902 540.078C33.4402 541.748 33.1902 543.298 33.6002 545.128Z" fill="url(#paint18_linear_20_2)"/>
<path d="M80.8401 487.338C80.3301 487.738 79.8301 488.128 79.3201 488.528C79.4101 488.638 79.4901 488.738 79.5701 488.848C80.3901 488.838 80.7701 488.288 80.8401 487.338Z" fill="url(#paint19_linear_20_2)"/>
<path d="M77.6002 492.708C76.6302 492.868 75.8402 493.728 75.8502 494.988C76.5302 494.328 77.2002 493.678 77.8802 493.018C77.7902 492.918 77.6902 492.808 77.6002 492.708Z" fill="url(#paint20_linear_20_2)"/>
<path d="M170.7 603.718C171.85 603.148 172.54 602.188 172.99 601.028C172.91 600.958 172.82 600.878 172.74 600.808C171.94 601.668 171.14 602.528 170.34 603.388C170.46 603.488 170.58 603.608 170.7 603.718Z" fill="url(#paint21_linear_20_2)"/>
<path d="M158.66 607.698C153.58 611.568 147.62 613.458 141.49 615.368C144.45 615.968 157.48 611.118 158.66 607.698Z" fill="url(#paint22_linear_20_2)"/>
<path d="M152.66 609.078C156 606.888 159.33 604.678 162.63 602.428C163.17 602.068 163.55 601.468 164 600.988C163.96 600.958 163.92 600.928 163.87 600.908C159.24 604.008 154.62 607.098 149.99 610.198C150.04 610.288 150.09 610.378 150.14 610.468C150.98 610.008 151.87 609.608 152.66 609.078Z" fill="url(#paint23_linear_20_2)"/>
<path d="M139.49 613.607C138.23 613.757 137.04 613.897 135.85 614.037C136.91 615.247 138.86 614.897 139.49 613.607Z" fill="url(#paint24_linear_20_2)"/>
<path d="M171.06 598.468C170.95 598.358 170.84 598.248 170.73 598.128C170.17 598.638 169.61 599.158 169.05 599.668C169.18 599.798 169.31 599.928 169.44 600.068C169.98 599.538 170.52 598.998 171.06 598.468Z" fill="url(#paint25_linear_20_2)"/>
<path d="M121.53 607.328C120.93 607.178 120.53 606.948 120.29 607.058C120.05 607.168 119.97 607.628 119.82 607.928C120.13 608.078 120.48 608.398 120.75 608.338C121 608.288 121.16 607.838 121.53 607.328Z" fill="url(#paint26_linear_20_2)"/>
<path d="M176.42 594.518C175.51 595.738 174.7 596.818 173.8 598.018C175.08 597.858 176.51 595.938 176.42 594.518Z" fill="url(#paint27_linear_20_2)"/>
<path d="M138.92 609.768C139.74 609.518 140.03 608.948 139.84 608.118C139.64 607.258 138.98 606.808 138.21 607.008C137.5 607.188 136.84 608.158 136.99 608.798C137.14 609.438 138.2 609.988 138.92 609.768Z" fill="url(#paint28_linear_20_2)"/>
<path d="M42.4101 524.147C42.0701 525.167 41.8201 525.927 41.5701 526.687C41.6901 526.727 41.8001 526.767 41.9201 526.817C42.8201 526.247 42.9901 525.587 42.4101 524.147Z" fill="url(#paint29_linear_20_2)"/>
<path d="M53.4601 591.328C44.1001 576.428 40.9101 559.998 41.2301 542.418C40.0401 544.468 40.3201 557.778 41.7001 564.398C43.7501 574.188 47.5101 583.258 53.4601 591.328Z" fill="url(#paint30_linear_20_2)"/>
<path d="M44.4401 558.798C44.3301 557.828 44.2201 556.858 44.1001 555.888C43.9301 555.908 43.7701 555.928 43.6001 555.948C43.7101 556.918 43.8201 557.888 43.9301 558.858C44.1001 558.838 44.2701 558.818 44.4401 558.798Z" fill="url(#paint31_linear_20_2)"/>
<path d="M49.11 534.038C50.19 533.718 50.6901 532.688 50.3501 531.488C50.0301 530.348 48.95 529.678 47.92 529.968C46.89 530.258 46.2201 531.528 46.5301 532.608C46.8401 533.708 48.01 534.358 49.11 534.038Z" fill="url(#paint32_linear_20_2)"/>
<path d="M47.1702 554.907C47.1002 554.057 47.0402 553.207 46.9702 552.357C46.8602 552.367 46.7602 552.377 46.6502 552.397C46.2302 553.637 46.2902 554.227 47.1702 554.907Z" fill="url(#paint33_linear_20_2)"/>
<path d="M45.6301 565.618C45.5201 565.108 45.4001 564.598 45.2801 564.088C45.2801 564.068 45.2201 564.058 45.1901 564.038C45.0601 564.068 44.9401 564.098 44.8101 564.128C44.9201 564.648 45.0301 565.168 45.1701 565.678C45.1901 565.698 45.4701 565.648 45.6301 565.618Z" fill="url(#paint34_linear_20_2)"/>
<path d="M45.7802 582.528C48.4202 588.548 52.0201 594.038 55.7101 599.458C55.9501 599.808 56.3202 600.078 56.6302 600.388C56.7302 600.318 56.8301 600.238 56.9201 600.168C51.8701 593.058 47.7602 585.438 44.5002 577.368C41.2002 569.208 39.4402 560.708 39.2302 551.878C39.0602 551.878 38.9001 551.878 38.7401 551.888C38.6501 552.518 38.4802 553.158 38.5002 553.788C38.7102 559.048 39.1602 564.308 40.7002 569.338C42.0902 573.828 43.8902 578.218 45.7802 582.528Z" fill="url(#paint35_linear_20_2)"/>
<path d="M170.02 612.388C169.97 612.318 169.91 612.248 169.86 612.178C169.2 612.558 168.5 612.878 167.88 613.308C164.69 615.558 161.57 617.888 158.35 620.078C151.89 624.478 144.44 626.618 137.1 628.888C133.78 629.918 130.21 630.258 126.73 630.668C124.14 630.968 121.5 630.828 118.88 630.948C110.81 631.318 102.87 630.618 95.1901 627.938C91.3401 626.588 87.4801 625.238 83.6901 623.718C80.9601 622.628 78.1901 621.488 75.7101 619.948C72.0101 617.648 68.5501 614.958 64.9901 612.438C64.4301 612.048 63.8701 611.658 63.0601 611.088C63.2101 611.518 63.2201 611.638 63.2801 611.688C67.0901 614.988 70.7601 618.528 75.2901 620.818C80.5401 623.478 85.9801 625.788 91.3401 628.238C94.1201 629.508 96.91 630.788 99.9901 631.108C110.22 632.178 120.45 633.138 130.72 631.648C134.13 631.158 137.6 630.798 140.88 629.838C144.15 628.878 147.25 627.298 150.38 625.878C157.36 622.728 163.55 618.398 169.18 613.228C169.47 612.988 169.74 612.678 170.02 612.388Z" fill="url(#paint36_linear_20_2)"/>
<path d="M41.5202 574.808C41.1002 573.708 40.6802 572.608 40.2602 571.508C40.1602 571.548 40.0602 571.588 39.9502 571.628C41.2302 577.288 42.5602 582.938 45.3302 588.108C48.0602 593.208 51.0602 598.158 55.0402 602.428C55.1102 602.148 55.0402 601.948 54.9102 601.798C51.7002 597.718 48.9902 593.298 46.8402 588.598C44.8002 584.118 43.2702 579.408 41.5202 574.808Z" fill="url(#paint37_linear_20_2)"/>
<path d="M76.9101 623.218C73.9701 621.528 70.8101 620.198 67.7201 618.748C67.2401 618.518 66.6601 618.498 66.1201 618.378C66.1001 618.478 66.07 618.568 66.05 618.668C66.71 618.968 67.4101 619.198 68.0101 619.588C70.7301 621.388 73.5301 623.098 76.1001 625.098C78.8701 627.238 81.7901 628.938 85.2101 629.798C87.0001 630.248 88.7901 630.718 90.5201 631.368C94.3801 632.808 98.3701 633.558 102.44 634.028C107.12 634.568 111.81 635.188 116.54 634.858C118.01 634.758 119.48 634.568 120.78 633.568C110.76 633.308 100.88 633.308 91.42 629.578C86.5 627.628 81.5301 625.878 76.9101 623.218Z" fill="url(#paint38_linear_20_2)"/>
<path d="M55.3501 606.588C53.8601 604.888 52.6601 602.928 51.1601 601.238C48.7501 598.518 46.9001 595.468 45.6201 592.108C43.8801 587.568 42.2201 582.998 40.6601 578.388C39.3901 574.658 38.2501 570.888 38.1501 566.878C38.1001 564.828 37.8901 562.778 37.7201 560.728C37.3501 556.138 36.6201 551.568 37.1201 546.948C37.4301 544.128 37.7801 541.318 38.0901 538.498C38.1401 538.028 38.1001 537.548 38.1101 537.068C37.9701 537.048 37.8201 537.018 37.6801 536.998C37.5301 537.478 37.3001 537.948 37.2301 538.438C36.8701 541.068 36.4801 543.708 36.2201 546.348C35.6801 551.738 36.2401 557.118 36.7101 562.478C37.0401 566.248 37.3601 570.068 38.2101 573.748C39.2601 578.268 40.7601 582.698 42.2601 587.098C43.1501 589.708 44.1901 592.298 45.5301 594.698C49.7301 602.238 54.6801 609.218 61.6101 614.568C62.3401 615.138 63.0901 615.678 63.8401 616.238C63.9201 616.148 64.0001 616.068 64.0701 615.978C63.5301 615.398 62.9801 614.818 62.4401 614.238C60.0701 611.698 57.6401 609.198 55.3501 606.588Z" fill="url(#paint39_linear_20_2)"/>
<path d="M64.8 550.128C64.9 550.128 64.99 550.138 65.09 550.138C64.96 549.198 64.89 548.248 64.69 547.328C63.12 539.838 62.94 532.338 63.49 524.698C64.16 515.368 68.06 507.218 71.7 498.918C72.19 497.808 72.77 496.738 73.3 495.648C73.2 495.608 73.1 495.558 73.01 495.518C68.29 503.268 64.2 511.248 63.1 520.488C61.89 530.488 61.5 540.408 64.8 550.128Z" fill="url(#paint40_linear_20_2)"/>
<path d="M34.76 533.768C34.89 533.788 35.03 533.818 35.16 533.838C36.07 532.548 35.82 531.048 35.91 529.608C35.81 529.588 35.71 529.568 35.61 529.548C35.33 530.968 35.04 532.368 34.76 533.768Z" fill="url(#paint41_linear_20_2)"/>
<path d="M50.1001 513.357C49.8701 513.927 49.6601 514.417 49.3501 515.187C50.6601 514.667 50.7301 514.437 50.1001 513.357Z" fill="url(#paint42_linear_20_2)"/>
<path d="M55.07 579.868C55.76 578.878 55.67 578.578 54.54 578.018C54.73 578.688 54.88 579.218 55.07 579.868Z" fill="url(#paint43_linear_20_2)"/>
<path d="M60.3301 597.348C61.1601 598.348 61.8101 599.138 62.4701 599.928C62.5701 599.858 62.6701 599.788 62.7701 599.718C62.5901 598.568 61.6501 597.498 60.3301 597.348Z" fill="url(#paint44_linear_20_2)"/>
<path d="M57.1401 604.308C58.4501 605.708 59.6102 606.948 60.7602 608.188C60.4602 606.438 58.3801 604.168 57.1401 604.308Z" fill="url(#paint45_linear_20_2)"/>
<path d="M62.8901 559.558C63.8501 559.328 64.7701 557.718 64.5001 556.738C64.2401 555.758 62.9701 555.157 61.8001 555.457C60.6301 555.757 60.1001 556.617 60.3801 557.767C60.6801 558.957 61.8601 559.808 62.8901 559.558Z" fill="url(#paint46_linear_20_2)"/>
<path d="M62.82 501.357C62.71 501.277 62.59 501.187 62.48 501.107C62.15 501.547 61.82 501.987 61.48 502.417C62.54 502.517 62.85 502.057 62.82 501.357Z" fill="url(#paint47_linear_20_2)"/>
<path d="M58.1002 508.558C58.3502 508.018 58.6202 507.488 58.8002 506.928C58.8302 506.848 58.3802 506.618 57.8802 506.268C57.6202 507.018 57.3902 507.528 57.3102 508.068C57.3002 508.188 57.8202 508.388 58.1002 508.558Z" fill="url(#paint48_linear_20_2)"/>
<path d="M51.33 582.708C49.97 579.268 48.6901 576.028 47.3601 572.678C46.9101 574.188 49.85 581.738 51.33 582.708Z" fill="url(#paint49_linear_20_2)"/>
<path d="M50.1301 567.147C49.9501 567.177 49.7601 567.207 49.5701 567.237C49.6601 567.817 49.7501 568.397 49.8401 568.987C50.0401 568.957 50.2401 568.917 50.4401 568.887C50.3401 568.307 50.2301 567.727 50.1301 567.147Z" fill="url(#paint50_linear_20_2)"/>
<path d="M53.1501 576.828C52.4101 575.178 51.7001 573.598 50.9901 572.008C50.7001 573.928 52.0001 576.638 53.1501 576.828Z" fill="url(#paint51_linear_20_2)"/>
<path d="M54.3102 549.368C54.4702 549.388 54.7402 548.688 55.1202 548.048C54.4602 547.848 54.0102 547.548 53.7702 547.678C53.4102 547.868 53.2102 548.348 52.9402 548.708C53.3902 548.948 53.8302 549.298 54.3102 549.368Z" fill="url(#paint52_linear_20_2)"/>
<path d="M52.6802 561.388C52.8002 561.528 53.3502 561.538 53.3802 561.458C53.6902 560.788 53.4502 560.268 52.8402 559.838C52.2102 560.318 52.2302 560.868 52.6802 561.388Z" fill="url(#paint53_linear_20_2)"/>
<path d="M52.88 509.838C53.48 509.378 53.67 508.798 52.81 508.018C52.62 508.598 52.44 509.168 52.25 509.748C52.47 509.778 52.77 509.928 52.88 509.838Z" fill="url(#paint54_linear_20_2)"/>
<path d="M619.54 60.3281C618.03 62.4181 618.72 64.4781 620.18 66.5381C620.12 64.4581 619.91 62.3781 619.54 60.3281Z" fill="url(#paint55_linear_20_2)"/>
<path d="M424.81 232.047C425.19 230.807 425.64 229.587 425.92 228.337C428.58 216.757 433.92 206.797 441.74 197.667C446.59 192.007 450.2 184.847 452.76 177.777C455.67 169.727 454.61 161.477 447.8 153.357C447.4 156.587 446.71 158.617 446.98 160.507C449.36 176.797 444.06 189.917 432.3 201.417C424 209.547 422.6 220.557 424.81 232.047Z" fill="url(#paint56_linear_20_2)"/>
<path d="M600.31 82.4079C601.32 82.7979 601.82 83.1779 602.08 83.0579C608.37 80.0279 614.68 78.3579 621.03 77.7079C621.06 76.7679 621.1 75.8179 621.12 74.8779C613.55 75.6979 606.67 77.6879 600.31 82.4079Z" fill="url(#paint57_linear_20_2)"/>
<path d="M596.05 44.6082C596.43 45.0982 596.82 45.5982 597.2 46.0882C599.48 44.5882 602 43.3483 603.99 41.5383C608.06 37.8383 612.45 35.2882 617.26 33.6382C616.81 32.6482 616.33 31.6682 615.81 30.6982H608.11C602.99 33.8782 599.06 38.8582 596.05 44.6082Z" fill="url(#paint58_linear_20_2)"/>
<path d="M527.57 197.697C527.44 197.497 527.52 197.567 527.57 197.697V197.697Z" fill="url(#paint59_linear_20_2)"/>
<path d="M599.08 133.178C604.74 147.148 609.17 160.878 615.71 173.508C616.61 175.248 617.57 176.938 618.59 178.588C618.54 177.848 618.49 177.108 618.45 176.358C618.04 167.008 618.47 157.698 618.25 148.418C615.57 146.828 612.96 144.958 610.42 142.808C606.75 139.688 603.09 136.578 599.08 133.178Z" fill="url(#paint60_linear_20_2)"/>
<path d="M507.51 209.628C509.41 202.338 510.83 194.598 510.49 187.148C510.12 179.038 504.61 174.408 497.27 173.508C500.49 183.508 503.05 193.488 500.58 203.078C498.84 193.638 496.98 183.528 495.12 173.418C494.21 173.698 493.29 173.978 492.38 174.258C497.84 189.528 498.61 204.808 493 220.148C491.08 225.398 489.12 230.668 487.61 236.048C485.28 244.328 486.2 254.388 489.69 260.218C489.02 246.768 494.07 235.588 500.17 224.678C502.9 219.798 506.13 214.928 507.51 209.628Z" fill="url(#paint61_linear_20_2)"/>
<path d="M559.05 232.498C554.86 220.428 550.55 207.998 546.03 194.978C544.5 210.218 548.33 222.908 559.05 232.498Z" fill="url(#paint62_linear_20_2)"/>
<path d="M532.83 161.908C538.57 168.418 544.48 175.118 549.7 181.038C550.26 171.968 541.71 161.688 532.83 161.908Z" fill="url(#paint63_linear_20_2)"/>
<path d="M567.99 115.858C582.1 93.4677 584.38 67.6077 577.15 45.0677C576.87 45.0577 576.6 45.0577 576.32 45.0377C575.88 44.9977 575.44 44.9477 575 44.8877C576.26 48.6177 577.25 52.4477 577.9 56.3777C581.18 76.2477 577.58 94.8277 567.85 112.348C566.87 114.118 566.22 116.068 565.43 117.938C565.44 117.938 565.69 117.688 565.69 117.688C565.67 117.728 565.65 117.758 565.63 117.788C566.45 117.178 567.47 116.678 567.99 115.858Z" fill="url(#paint64_linear_20_2)"/>
<path d="M565.45 117.918C562.94 120.428 560.39 122.918 557.92 125.468C535.11 149.008 507.6 156.398 476.74 146.328C445.47 136.118 427.51 113.268 423.76 80.638C421.61 62.008 425.19 44.898 433.16 30.708H430.95C430.31 31.858 429.69 33.018 429.1 34.198C414.26 64.088 419.59 101.878 442.18 126.868C464.07 151.078 498.73 159.378 529.84 147.158C544.74 141.308 557.8 132.578 565.62 117.808C565.56 117.838 565.5 117.878 565.45 117.918Z" fill="url(#paint65_linear_20_2)"/>
<path d="M348.58 60.2382C346.04 59.1382 343.24 58.1282 340.53 58.0482C333.68 57.8282 326.82 58.1682 319.97 58.2782C327.89 61.4482 335.69 62.8482 342.99 65.5682C350.37 68.3182 357.02 73.0982 364.45 75.6482C371.54 78.0882 379.22 79.9682 386.64 79.9882C395.07 80.0182 400.47 73.5382 400.63 67.0182C391.44 68.6382 382.06 70.2882 372.68 71.9482C372.5 71.1082 372.32 70.2582 372.14 69.4182C386.82 68.7982 394.14 66.5082 399.46 60.0282C381.72 69.1282 365.13 67.3982 348.58 60.2382Z" fill="url(#paint66_linear_20_2)"/>
<path d="M337.06 129.278C349.48 121.548 362.54 117.158 376.85 116.148C385.67 115.528 393.84 112.138 399.81 105.418C403.28 101.508 405.53 96.5082 408.33 91.9982C407.68 91.5382 407.02 91.0782 406.37 90.6182C405.13 91.4982 403.52 92.1182 402.69 93.2782C393.18 106.698 380.29 112.428 363.84 112.938C352.67 113.298 340.69 121.878 337.06 129.278Z" fill="url(#paint67_linear_20_2)"/>
<path d="M407.48 30.6982H401.06C395.93 30.9382 390.81 31.2583 385.69 31.6283C387.98 32.8683 390.45 33.8782 392.78 34.6982C398.71 36.7882 404.29 34.7082 407.48 30.6982Z" fill="url(#paint68_linear_20_2)"/>
<path d="M600.82 77.5181C607.41 74.8881 613.97 72.2681 621.2 72.1381C621.28 69.0081 621.33 65.8681 621.38 62.7381C621.11 62.6881 620.84 62.6381 620.57 62.5981C610.01 60.9581 601.65 67.5381 600.82 77.5181Z" fill="url(#paint69_linear_20_2)"/>
<path d="M363.99 191.657C372.79 182.307 384.59 179.277 396.19 175.677C403.05 173.547 410.37 171.717 416.22 167.837C421.73 164.177 426.49 158.557 429.88 152.787C432.73 147.927 432.47 141.737 427.87 136.637C417.77 156.277 417.77 156.277 412.85 158.717C416.69 151.587 420.95 143.677 425.21 135.757C423.08 135.037 422.5 135.167 422.39 135.467C415.43 154.587 401.7 166.247 382.76 172.977C374.08 176.057 367.83 182.817 363.99 191.657Z" fill="url(#paint70_linear_20_2)"/>
<path d="M597.47 183.408C601.58 190.008 606.85 195.418 613.81 198.628C614.1 197.908 614.39 197.188 614.69 196.468C607.7 189.228 603.73 180.218 600.04 170.898C597.15 163.568 594.07 156.088 589.66 149.648C583.43 140.528 574.37 139.198 566.72 144.498C573.78 150.018 580.99 155.658 588.2 161.288C587.85 161.718 587.5 162.138 587.16 162.568C580.43 158.128 573.71 153.698 566.98 149.258C566.5 149.908 566.02 150.558 565.54 151.208C580.77 157.548 589.28 170.258 597.47 183.408Z" fill="url(#paint71_linear_20_2)"/>
<path d="M613.39 114.858C613.33 114.528 613.27 114.188 613.22 113.858C605.82 111.608 598.43 109.348 591.04 107.098C590.84 107.678 590.63 108.248 590.43 108.828C598.02 111.048 605.62 113.278 613.21 115.498C613.27 115.278 613.33 115.068 613.39 114.858Z" fill="url(#paint72_linear_20_2)"/>
<path d="M544.61 132.348C532.3 141.158 517.27 146.388 501 146.498C501.2 146.498 501.4 146.508 501.6 146.508C517.67 146.488 532.49 141.238 544.61 132.348Z" fill="url(#paint73_linear_20_2)"/>
<path d="M619.45 45.6977C619.96 45.8677 620.47 46.0477 620.99 46.2177C620.95 45.9577 620.92 45.6877 620.87 45.4277C620.4 45.5177 619.93 45.5877 619.45 45.6977Z" fill="url(#paint74_linear_20_2)"/>
<path d="M585.82 120.738C587.39 121.118 589.01 121.678 590.59 121.638C600.25 121.358 608.66 123.718 616.26 128.698C615.81 126.468 615.3 124.178 614.8 121.838C614.7 121.768 614.61 121.698 614.51 121.628C609.73 118.118 603.02 116.628 596.96 115.678C593.03 115.058 588.68 117.048 583.5 118.068C585.25 120.118 585.48 120.658 585.82 120.738Z" fill="url(#paint75_linear_20_2)"/>
<path d="M540.6 519.638C537.12 519.128 533.64 518.608 530.12 518.098C530.1 519.348 530.08 520.268 530.07 521.338C533.63 521.218 537.08 521.098 540.53 520.978C540.55 520.528 540.57 520.088 540.6 519.638Z" fill="url(#paint76_linear_20_2)"/>
<path d="M512.34 506.788C511.96 507.688 511.59 508.588 511.12 509.718C509.65 509.008 508.36 508.388 506.75 507.608C507.15 509.078 507.53 510.498 508.02 512.298C509.31 510.088 513.19 510.468 512.34 506.788Z" fill="url(#paint77_linear_20_2)"/>
<path d="M542.67 514.698C538.7 514.438 534.74 514.188 530.77 513.928C530.77 514.148 530.76 514.368 530.76 514.588C534.73 514.848 538.71 515.098 542.68 515.358C542.68 515.138 542.67 514.918 542.67 514.698Z" fill="url(#paint78_linear_20_2)"/>
<path d="M503.97 508.168C505.08 507.848 505.76 507.658 506.43 507.458C505.41 507.358 504.58 507.658 503.97 508.168Z" fill="url(#paint79_linear_20_2)"/>
<path d="M483.23 520.248C479.85 520.028 476.47 519.808 473.09 519.588C473.07 519.868 473.05 520.148 473.03 520.428C476.38 520.648 479.73 520.858 483.08 521.078C483.13 520.808 483.18 520.528 483.23 520.248Z" fill="url(#paint80_linear_20_2)"/>
<path d="M570.18 519.717C570.86 521.027 571.54 522.317 572.33 523.837C572.9 523.467 573.77 522.907 575.04 522.087C572.89 521.867 573.06 518.057 570.18 519.717Z" fill="url(#paint81_linear_20_2)"/>
<path d="M556.48 516.777C547.61 514.387 545 514.157 543.92 515.737C548.16 516.447 552.34 517.147 556.52 517.847C556.51 517.497 556.5 517.137 556.48 516.777Z" fill="url(#paint82_linear_20_2)"/>
<path d="M518.71 517.268C518.38 518.018 518.17 518.478 517.8 519.308C517.28 518.348 516.98 517.778 516.83 517.508C514.53 517.808 512.61 518.068 510.7 518.318C510.65 518.118 510.6 517.908 510.55 517.708C512.02 517.338 513.48 516.968 514.89 516.618C514.27 514.958 513.71 513.448 513.15 511.948C512.52 513.398 512.03 514.538 511.57 515.578C508.98 513.298 506.7 511.288 503.58 508.538C502.99 509.248 502.73 510.208 502.89 511.178C503.04 512.048 502.45 513.048 502.2 513.988C502.03 513.888 501.87 513.788 501.7 513.698C501.55 512.198 501.4 510.708 501.26 509.208C500.06 509.628 498.87 510.238 497.64 510.388C496.87 510.478 496.01 509.878 495.19 509.588C495.27 509.408 495.35 509.228 495.43 509.058C494.18 509.408 492.93 509.758 491.61 510.128C491.58 509.318 491.56 508.648 491.54 507.978C490.91 510.328 488.17 510.138 487.09 511.808C486.84 512.188 485.6 512.248 484.99 512.008C482.87 511.168 482.13 511.628 482.48 513.958C482.61 514.788 482.11 515.718 481.89 516.598C481.64 516.528 481.39 516.458 481.14 516.388C481.24 515.548 481.34 514.698 481.45 513.788C480.39 514.118 479.5 514.388 478.72 514.628C480.61 518.218 484.12 519.598 487.85 519.398C494.58 519.038 501.08 520.238 507.65 521.148C511.78 521.728 516.12 522.428 519.65 518.788C519.43 518.418 519.12 517.918 518.71 517.268Z" fill="url(#paint83_linear_20_2)"/>
<path d="M565.56 523.248C560.82 523.808 556.07 524.378 551.32 524.888C549.09 525.128 546.84 525.278 544.6 525.408C541.03 525.608 537.45 525.928 533.87 525.868C529.52 525.788 525.17 525.348 520.82 525.068C520.82 525.498 520.81 525.918 520.81 526.348C537.33 527.548 553.75 526.508 570.11 524.348C570.05 523.778 570 523.208 569.94 522.638C568.48 522.838 567.02 523.078 565.56 523.248Z" fill="url(#paint84_linear_20_2)"/>
<path d="M493.37 521.948C498.11 522.258 502.84 522.558 507.58 522.868C507.61 522.738 507.64 522.598 507.67 522.468C502.95 521.898 498.22 521.338 493.5 520.768C493.45 521.168 493.41 521.558 493.37 521.948Z" fill="url(#paint85_linear_20_2)"/>
<path d="M496.7 524.027C490.78 523.507 484.84 523.117 478.93 522.497C470.82 521.647 462.72 520.697 454.63 519.657C451.93 519.307 449.14 518.897 446.64 517.907C444.23 516.947 441.59 517.867 439.31 516.537C439.06 516.387 438.29 517.127 437.77 517.447C437.84 517.677 437.91 517.897 437.97 518.127C442.04 517.097 445.26 521.567 449.49 519.607C449.65 519.537 449.98 519.907 450.25 519.957C453.81 520.647 457.35 521.497 460.94 521.947C467.01 522.697 473.13 523.127 479.21 523.837C481.26 524.077 483.47 525.567 485.22 525.087C488.81 524.117 491.94 525.707 495.29 525.807C496.32 525.837 497.36 525.537 498.4 525.397C498.37 525.067 498.35 524.737 498.32 524.397C497.77 524.267 497.24 524.077 496.7 524.027Z" fill="url(#paint86_linear_20_2)"/>
<path d="M524.13 523.917C532.51 524.347 540.81 524.327 549.16 520.747C547.98 520.217 547.28 519.947 546.64 519.597C545.94 519.217 545.29 518.747 544.62 518.317C544.51 518.487 544.41 518.647 544.3 518.817C544.6 519.287 544.89 519.767 545.44 520.647C535.26 524.067 524.78 521.757 514.71 523.767C515.94 524.077 517.16 523.997 518.38 523.967C520.3 523.917 522.22 523.817 524.13 523.917Z" fill="url(#paint87_linear_20_2)"/>
<path d="M470.76 518.648C465.38 517.768 459.99 516.888 454.61 516.018C454.57 516.308 454.53 516.608 454.48 516.898C459.83 518.068 464.98 520.448 470.76 518.648Z" fill="url(#paint88_linear_20_2)"/>
<path d="M421.5 512.168C428.06 513.118 434.17 509.848 440.64 509.968C434.11 509.298 427.74 510.138 421.5 512.168Z" fill="url(#paint89_linear_20_2)"/>
<path d="M465.11 513.698C461.93 513.638 458.98 513.588 456.02 513.538C455.97 513.828 455.92 514.118 455.87 514.408C458.72 515.078 461.58 515.738 464.58 516.438C464.78 515.428 464.93 514.638 465.11 513.698Z" fill="url(#paint90_linear_20_2)"/>
<path d="M453.69 509.808C453.74 509.558 453.78 509.308 453.83 509.058C449.84 509.248 445.84 509.438 441.85 509.618C441.88 510.028 441.91 510.438 441.93 510.838C445.85 510.498 449.77 510.158 453.69 509.808Z" fill="url(#paint91_linear_20_2)"/>
<path d="M656.23 263.788C653.1 250.668 655.29 237.298 656.88 224.148C660.1 197.528 653.22 170.868 654.65 144.128C655.43 129.508 653.39 114.898 652.24 100.318C650.89 83.2179 649.71 65.8179 652.12 48.7379C652.58 45.4779 653.18 41.9879 654.07 38.4979C650.9 29.3279 648.02 19.8979 647.6 10.4279C628.57 5.74791 608.44 3.5779 588.69 3.8079C547.87 4.2879 503.29 18.6479 464.43 1.8079C463.27 1.3079 462.36 0.687893 461.65 0.00789285C425.55 -0.392107 387.84 14.5979 352.63 2.6079C351.48 2.2179 350.51 1.6879 349.7 1.0779C340.9 2.9579 332.05 4.68789 323.03 5.4479C297.69 7.55789 272.74 5.26789 247.41 4.33789C222.97 3.43789 198.73 6.2479 174.39 7.7079C127.6 10.5179 80.19 7.12791 33.39 3.92791C30.82 5.03791 28.21 6.1379 25.51 6.9379C20.45 5.6079 14.05 8.3279 13.88 15.0979C12.81 58.3779 11.74 101.668 10.67 144.948C10.05 146.808 9.43999 148.668 8.76999 150.508C9.29999 152.078 9.85 153.628 10.42 155.168C7.99 253.418 5.55999 351.668 3.12999 449.918C3.06999 452.268 3.8 454.128 4.97 455.498C4.48 457.458 3.96999 459.418 3.40999 461.368C4.55999 461.688 5.55999 462.238 6.39999 463.018C7.30999 463.738 7.94999 464.598 8.31999 465.588C8.89999 466.538 9.17 467.568 9.12 468.668V470.088C9.10999 471.528 8.68999 472.878 7.84999 474.128L7.62 474.378C8.55999 475.648 9.12 477.128 9.12 478.628V484.318C9.12 487.978 6.28999 490.858 2.51999 491.898C2.98999 495.018 3.15 498.158 3.09 501.118C2.95 508.078 1.7 514.918 0 521.698C2.55 522.878 4.34999 525.108 4.15999 528.428C3.46999 540.668 3.05 552.908 2.67 565.148C4.55 566.438 5.81999 568.418 5.81999 571.108C5.78999 595.758 3.51 622.588 10.22 647.098C12.87 650.238 17.43 652.568 25.63 653.368C26.88 653.498 28.13 653.608 29.38 653.728C43.78 652.298 58.24 651.298 72.75 651.028C91.78 650.678 109.18 652.338 127.06 656.378C132.87 656.308 138.68 656.228 144.5 656.148C174.18 655.658 200.16 656.048 230.23 653.618C234.04 655.088 255.67 655.498 262.03 653.588L255.69 648.658C265.51 645.248 272.81 649.808 268.15 655.058C268.15 655.058 268.15 655.068 268.16 655.068C278.8 654.978 287.04 654.148 296.37 654.438C299.22 654.998 301.84 655.208 304.28 655.138C305.66 654.858 307.05 654.578 308.43 654.308C309.89 654.018 311.32 653.768 312.77 653.498C313.98 653.038 315.15 652.508 316.27 651.868H316.28C316.79 652.138 317.31 652.388 317.83 652.618C333.42 650.078 348.59 649.108 364.81 650.408C379.81 651.608 394.8 652.878 409.8 654.158C434.39 655.718 448.77 654.598 456.87 653.208C461.55 653.108 466.26 652.858 471.1 652.388C476.83 652.468 483.28 653.898 488.11 653.108C500.02 651.178 514.59 653.988 524.56 648.878C531.56 647.848 540.19 649.588 547.43 648.868C562.4 647.888 578.99 650.078 591.81 644.418C593.22 643.798 596.98 643.868 599.33 644.148C612.6 645.488 618.46 638.808 628.81 636.458C638.04 633.608 650.57 632.148 653.27 626.418C653.84 625.308 654.35 624.188 654.82 623.068C654.82 618.288 655 613.498 655.33 608.698C654.83 590.628 654.79 572.568 654.79 554.438C654.79 547.238 654.75 540.038 654.73 532.848C653.38 527.978 652.11 523.088 651.48 518.108C650.49 510.338 651.59 502.868 654.59 495.888C654.53 485.388 654.48 474.878 654.41 464.378C654.32 449.178 654.36 433.978 654.85 418.778C654.96 415.378 655.14 411.968 655.34 408.568C655.45 408.258 655.55 407.908 655.63 407.498C657.13 400.058 657.03 387.868 656.75 379.858C656.77 378.018 656.76 376.168 656.71 374.328C656.48 365.708 655.73 357.068 655.42 348.438C653.62 346.768 654.18 345.898 655.32 344.988C655.22 339.648 655.33 334.308 655.92 328.968C656.68 322.078 658.37 315.268 659.96 308.448C658.94 307.398 657.62 306.508 655.9 305.818C654.61 305.278 656.18 303.048 657.25 301.728C659.35 300.008 661.06 298.248 662.43 296.458C662.91 293.488 663.27 290.498 663.4 287.508C663.81 278.928 658.22 272.108 656.23 263.788ZM131.45 633.438C119.4 635.918 107.28 636.508 95.15 633.638C86.51 631.588 78.57 628.088 71.21 623.098C66.74 620.068 62.04 617.358 58.28 613.418C52.75 607.618 47.88 601.318 44.21 594.158C43.33 592.438 42.56 590.618 42.02 588.768C40.3 582.828 38.5 576.898 37.13 570.878C35.56 563.998 34.17 557.068 34.19 549.948C34.19 549.628 34.17 549.308 34.13 548.998C34.12 548.868 34.04 548.738 34 548.608C33.9 548.598 33.81 548.588 33.71 548.568C33.64 548.958 33.52 549.338 33.5 549.728C33.01 561.378 34.56 572.748 38.45 583.768C39.36 586.348 40.11 588.988 41.16 591.508C42.85 595.598 45.44 599.178 48.05 602.708C53.04 609.448 58.67 615.558 65.44 620.568C65.59 620.678 65.73 620.828 65.72 621.158C64.64 620.398 63.53 619.678 62.49 618.878C53.18 611.708 46.21 602.668 40.95 592.198C37.13 584.608 34.66 576.598 32.81 568.368C29.67 554.368 29.94 540.418 34.42 526.758C36.64 519.988 39.63 513.838 43.34 508.308L47.33 502.918C50.06 499.618 53.09 496.568 56.43 493.798C60.58 490.368 65.2 487.348 70.3 484.748C78.7 480.468 87.7 478.768 97.08 478.888C98.74 478.908 100.41 479.018 102.07 479.088C102.27 479.098 102.47 479.168 102.72 479.398C102.28 479.568 101.86 479.768 101.41 479.898C89.62 483.438 81.01 490.908 74.88 501.418C70.74 508.518 67.68 515.998 66.96 524.278C66.56 528.828 66.88 533.368 67.65 537.838C68.45 542.488 69.4 547.128 70.67 551.668C72.91 559.628 77.15 566.548 82.17 573.088C87.18 579.618 93.47 584.598 100.12 589.268C112.83 598.188 127.03 601.068 142.27 600.058C146.4 599.788 150.45 599.128 154.4 597.908C155.45 597.578 156.51 597.238 157.58 597.008C166.81 595.068 174.02 589.638 180.86 583.548C185.86 579.108 189.03 573.408 192.03 567.568C192.58 566.498 193.08 565.388 193.58 564.288C193.79 563.818 193.95 563.328 194.14 562.848C194.3 562.908 194.45 562.978 194.61 563.038C194.49 564.188 194.4 565.338 194.26 566.488C192.82 578.078 189.12 588.888 182.95 598.808C179.48 604.388 175.1 609.198 170.28 613.588L161.38 620.368L161.55 620.658C156.97 623.888 152.07 626.618 146.86 628.738C141.89 630.798 136.68 632.358 131.45 633.438ZM63.06 420.318C63.72 420.438 64.36 420.748 64.89 421.278C65.29 421.678 65.57 422.188 65.74 422.738L63.06 420.318ZM165.63 629.478L165.87 630.078C161.77 633.258 157.42 636.058 152.75 638.378L165.63 629.478ZM274.27 646.698C279.65 646.088 285.04 645.478 291.64 644.738C287.88 648.398 283.09 649.018 274.27 646.698ZM635.26 354.138C630.85 359.948 648.64 367.398 636.71 371.248C633.66 372.348 631.29 376.048 631.18 378.798C631.18 378.808 631.17 378.818 631.16 378.828C630.01 381.808 633.5 385.938 636.25 388.588C636.48 389.148 637.16 389.818 638.46 390.628C639.46 391.328 636.82 393.078 635.95 394.348C630.39 400.618 638.19 409.028 629.78 414.068C638.43 419.368 635.35 424.288 633.91 430.088C631.53 436.168 631.59 441.998 637.44 447.718C640 453.568 634.47 459.808 633.98 465.748C623.35 490.808 633.62 515.328 634.07 540.288C637 546.818 641.12 553.428 638.84 560.248C636.3 565.298 633.64 569.968 634.14 575.238C636.08 591.708 636.2 605.868 625.31 616.678C629.21 618.468 630.39 621.288 624.96 623.398C624.8 623.458 624.64 623.518 624.48 623.578C626.03 626.428 622.54 630.068 614.04 630.288C609.91 630.398 605.76 630.488 601.61 630.568C585.64 634.428 568.34 636.918 550.69 639.098C547.17 642.778 535.45 642.538 527.16 641.918C526.19 642.038 525.23 642.148 524.26 642.268C522.73 642.448 521.3 642.478 519.98 642.418C515.96 642.718 511.96 642.318 509.96 640.788C498.27 640.408 486.76 640.358 475.05 640.398C471.35 641.228 467.7 642.118 464.1 643.108C460.36 644.138 456.74 644.048 453.83 643.338C453.12 642.938 452.42 642.548 451.73 642.168C450.92 641.718 449.98 641.368 448.97 641.088C448.74 640.888 448.52 640.688 448.34 640.488C447.49 640.488 446.63 640.488 445.78 640.488C439.33 639.708 431.56 640.988 429.72 641.378C425.11 641.008 420.66 640.718 416.19 640.958C410.94 640.698 404.72 640.358 398.66 640.018C396.48 639.388 393.28 639.458 389.87 639.528C384.87 639.248 380.44 638.988 377.34 638.808C348.06 635.498 318.3 635.688 290.41 641.558C281.42 638.338 261.58 637.838 251.65 641.118C251.65 641.118 252.86 645.208 253.65 647.858C252.89 648.378 252.8 648.438 252.04 648.958C241.59 644.318 242.42 651.598 233.68 651.138C238.64 648.028 253.01 642.018 238 641.218C219.36 641.738 198.88 638.838 181.97 643.098C172.3 642.828 161.77 641.738 151.82 640.318C158.25 637.138 164.24 633.148 169.74 628.448C170.06 628.178 170.36 627.898 170.67 627.618C172.31 626.768 174.4 625.948 176.91 625.428C182.66 625.628 187.82 625.758 190.41 625.698C198.25 625.498 213.93 627.018 218.08 624.318C222.23 621.608 243.05 614.638 254.34 612.288C265.63 609.948 299.04 622.518 311.18 625.698C323.31 628.878 352.07 625.698 352.07 625.698L404.32 620.878L420 624.318C420 624.318 481.6 622.518 489.82 620.638C498.04 618.758 498.67 616.058 498.67 616.058H517.43L537.18 625.708H552.36L581.8 623.038C581.98 623.208 582.16 623.358 582.33 623.538H586.51C586.67 623.238 586.79 622.888 586.94 622.568L594.91 621.848C594.97 622.268 594.92 622.808 594.68 623.538H595.12C596.28 623.338 597.44 623.118 598.59 622.848C600.71 622.338 602.95 621.698 605.15 620.918L608.15 620.648L608.11 619.788C610 618.988 611.82 618.078 613.44 617.048C616.45 615.138 618.75 612.488 621.2 609.978C620.78 609.698 620.44 609.328 620.23 608.838C617.46 602.448 616.13 595.938 615.91 589.388C564.84 607.088 511.38 616.048 456.56 616.048C396.61 616.048 338.29 605.338 282.95 584.198C282.85 586.168 282.5 588.168 281.86 590.188C280.89 593.248 278.45 595.828 276.46 598.988C273.89 598.298 271.61 597.678 269.33 597.068C269.47 596.468 269.61 595.858 269.74 595.258C271.45 595.498 273.17 595.738 274.88 595.988C272.21 593.608 269.67 591.448 272.48 587.988C273.02 587.318 275.06 587.858 276.73 586.938C274.38 586.538 272.03 586.138 269.56 585.728C269.5 582.418 266.26 579.158 260.8 577.018C258.39 578.328 256.48 579.358 254.03 580.688C254.61 577.988 255.01 576.158 255.71 572.918C252.66 574.318 250.39 575.358 248.03 576.448C247.91 575.238 247.71 573.248 247.52 571.258C246.95 571.168 246.38 571.068 245.81 570.978C245.53 573.188 245.24 575.408 244.96 577.618C244.66 577.758 244.35 577.908 244.05 578.048C243.46 576.508 242.87 574.958 242.33 573.538C240.93 574.648 239.43 575.848 236.98 577.788C238.8 574.238 239.87 572.168 240.92 570.098C241.52 568.908 242.22 567.838 242.98 566.868C194.55 543.238 150.63 511.888 112.16 473.418C84.64 445.898 60.76 415.588 40.74 382.828C41.5 391.808 42.12 400.818 42.33 409.828C43.39 409.388 44.69 409.448 45.7 409.978C46.48 410.388 47.13 411.298 47.37 412.138C47.64 413.098 47.44 414.058 47 414.928C45.93 417.048 44.62 418.988 43.16 420.858C42.9 421.188 42.62 421.518 42.34 421.838C42.21 427.138 41.91 432.438 41.33 437.728C41.12 439.668 39.84 441.368 37.71 441.348C37.12 441.338 36.52 441.148 35.97 440.848V443.838C36.49 443.538 37.08 443.358 37.71 443.348C39.58 443.328 41.47 443.108 43.38 442.758L42.96 449.818L43.32 450.098C43.19 450.118 43.07 450.138 42.94 450.148L42.96 449.818L40.22 447.668L40.65 450.428C39.67 450.518 38.69 450.578 37.7 450.588C37.07 450.598 36.48 450.408 35.96 450.108V460.418C37.83 460.338 39.78 461.488 39.79 463.898C39.81 470.838 40.5 477.768 41.22 484.668C41.42 486.588 41.63 488.518 41.84 490.438C42.23 490.868 42.59 491.328 42.94 491.798C41.74 492.538 40.64 493.338 39.77 494.018C39.77 494.008 39.76 494.008 39.76 493.998C39.72 494.038 39.68 494.088 39.63 494.128C38.48 495.038 37.75 495.718 37.75 495.718L37.74 496.068C29.44 504.698 23.26 515.118 19.25 527.338C19 528.108 18.77 528.878 18.54 529.648C17.99 512.198 18.51 494.738 21.68 477.358C20.85 464.528 20.2 451.798 24.55 439.088C24.49 427.708 24.95 416.258 23.1 404.898C9.67999 371.148 21 333.698 23.85 298.628C25.54 277.818 22.4 256.948 23.04 236.058C23.76 212.728 25.79 189.468 25.88 166.108C25.89 163.498 26.62 161.428 27.79 159.888C28.18 149.168 28.38 138.438 28 127.708C27.49 113.408 25.53 99.2679 25.44 84.9079C25.35 70.6479 25.84 56.3779 25.88 42.1179C25.89 38.4079 27.55 35.7579 29.92 34.1679C29.61 33.2679 29.46 32.3279 29.5 31.3379V29.5379C29.51 27.7179 29.97 26.0179 30.89 24.4379C31.42 23.7579 31.95 23.0779 32.48 22.3979C33.75 21.1479 35.24 20.2779 36.96 19.7979C37.86 19.6779 38.76 19.5579 39.66 19.4379C41.06 19.3879 42.36 19.6779 43.58 20.3079C44.84 20.7179 45.93 21.4079 46.85 22.3979C47.07 22.6079 47.28 22.8179 47.47 23.0479C47.54 23.0379 47.61 23.0179 47.68 23.0179C49.79 20.7479 52.84 19.4079 57.31 19.5679C120.83 17.0679 184.33 20.7379 247.96 19.5279C260.88 19.9579 269.22 24.0179 282.65 20.8179H282.66C284.46 19.8079 287.21 19.1279 290.92 19.0979C311.59 18.9579 331.45 16.2679 352 15.7279C372.05 15.1979 392.59 16.4879 412.74 16.3979C456.99 16.6079 501.23 15.9879 545.32 15.2079C567.1 16.0379 588.68 16.3979 610.43 14.9179C630 13.9879 628.35 28.5279 623.23 34.1079C622.46 41.7379 631.01 47.1279 625.4 54.7179C625.72 55.0979 625.97 55.5779 626.12 56.1779C627.6 62.2979 628.01 68.9279 626.87 75.1979C627.17 75.9379 627.32 76.6879 627.26 77.4379C628.51 84.3779 628.37 91.3679 628.73 98.3379C630.09 106.458 619.37 113.948 627.41 122.078L627.42 122.088C628.65 128.668 622.38 135.778 622.73 142.468C621.83 153.028 628.02 164.148 629.62 174.398C616.48 192.438 626.85 211.458 629.44 229.888C630.31 243.968 636.4 258.168 638.39 272.048C636.91 282.128 641.56 291.718 644.88 301.458C650.29 311.528 640.45 321.478 632.01 330.768C627.25 338.118 640.93 346.358 635.26 354.138Z" fill="url(#paint92_linear_20_2)"/>
<path d="M48.2502 277.198C48.8302 289.588 45.6602 301.458 39.9802 312.328C48.1902 330.918 57.6102 348.858 68.1402 366.048C78.9402 363.308 90.7002 368.158 96.8802 379.518C101.7 388.368 101.36 397.008 94.8102 404.928C177.99 513.698 309.07 583.988 456.26 583.988C513.85 583.988 568.97 573.218 619.72 553.608C619.58 548.588 619.42 543.558 619.24 538.538C618.75 524.418 618.32 510.278 618.84 496.148C618.99 492.048 619.18 487.948 619.4 483.858C615.69 485.568 611.96 487.238 608.19 488.828C584.54 498.828 560.16 506.408 535.23 511.528C543.74 512.538 552.1 513.458 560.39 514.748C568.89 516.068 577.32 517.938 585.74 519.728C588.8 520.378 591.66 521.658 593.77 525.188C590.25 526.208 587.17 527.388 583.98 527.978C579.52 528.798 575 529.348 570.48 529.708C566.02 530.058 561.52 529.988 557.04 530.158C555.89 530.198 554.76 530.528 553.61 530.568C551.49 530.648 549.26 532.088 547.28 529.808C546.86 529.328 545.28 529.808 544.24 529.918C542.92 530.048 541.62 530.388 540.3 530.388C536.05 530.388 531.75 530.688 527.59 530.058C525.3 529.708 522.78 531.608 520.74 529.398C520.69 529.338 520.53 529.318 520.46 529.348C517.59 530.888 514.99 528.468 512.18 528.808C509.88 529.088 507.55 529.158 504.97 529.338C504.94 529.588 504.86 530.308 504.75 531.218C504.48 530.928 504.21 530.778 504.18 530.588C503.9 528.848 502.57 528.068 501.22 528.608C499.21 529.398 497.6 528.668 495.79 528.248C494.79 528.018 493.51 528.098 492.59 528.528C490.73 529.398 488.94 528.698 487.25 528.438C483.45 527.848 479.75 526.098 475.83 527.418C473.49 528.208 472.12 526.138 470.18 525.898C466.48 525.448 462.77 525.128 459.07 524.688C452.54 523.918 445.93 523.498 439.5 522.198C433.37 520.968 427.29 519.488 421.22 517.988C380.89 514.418 341.71 504.668 304.33 488.858C257.85 469.198 216.11 441.058 180.26 405.208C144.41 369.358 116.27 327.618 96.6102 281.138C76.2602 233.018 65.9402 181.898 65.9402 129.208C65.9402 95.9282 70.0602 63.2882 78.2202 31.6182C68.7802 33.1882 59.7402 35.9282 51.7402 40.5982C45.4902 44.2482 41.4502 50.4982 39.1002 57.8282C39.6602 59.5682 40.1702 61.3282 40.5602 63.1282C41.4002 67.0882 41.7702 71.2582 40.9202 75.2482C40.8302 76.8082 40.6502 78.3682 40.3502 79.9282C39.7902 82.8182 38.7802 85.5482 37.4602 88.1082C38.3202 93.4782 39.7202 98.4582 41.4902 102.528C41.9302 103.528 42.2102 104.528 42.3702 105.498C42.8302 105.738 43.2802 105.998 43.6802 106.328C44.2202 106.678 44.7802 106.978 45.3602 107.278C46.5702 107.898 47.6802 108.758 48.6702 109.688C51.4402 112.308 51.1102 116.658 48.6702 119.318C46.2402 121.958 42.0202 121.768 39.3902 119.598C38.8502 119.248 38.2902 118.948 37.7102 118.648C37.3602 118.468 37.0302 118.228 36.7002 118.008C36.6102 118.068 36.5102 118.128 36.4202 118.188C39.7302 123.268 41.3502 129.038 41.2502 135.288C41.1402 142.568 39.2202 149.708 37.6102 156.768C36.8402 160.148 36.3402 163.588 35.9402 167.048V224.128C37.2002 229.728 38.7502 235.288 40.3902 240.818C43.9002 252.718 47.6702 264.708 48.2502 277.198Z" fill="url(#paint93_linear_20_2)"/>
<path d="M622.06 428.828C571.9 456.678 515.22 471.498 456.27 471.498C364.83 471.498 278.87 435.888 214.21 371.238C165.38 322.408 133.13 261.408 120.26 195.088C114.9 197.778 109.18 199.548 102.76 198.998C100.57 198.808 98.1902 200.578 96.2902 198.008C96.2002 197.878 95.0902 198.508 94.1902 198.498C96.8502 195.438 101.82 194.178 101.72 188.318C102.67 189.468 103.43 190.378 104.74 191.968C104.4 189.858 104.19 188.488 103.94 186.948C103.38 187.118 102.8 187.288 102.09 187.498C102.18 186.068 102.26 184.888 102.36 183.418C103.84 185.098 105.22 186.658 106.67 188.288C106.48 187.068 106.28 185.858 106.05 184.388C107.52 183.978 108.88 183.608 110.63 183.128C108.65 182.138 106.93 181.068 109.69 179.058C110.33 179.298 111.13 179.608 112.58 180.158C112.09 178.788 111.75 177.848 111.42 176.908C109.52 176.278 107.61 175.648 105.61 174.978C103.69 177.768 107.24 176.768 108.1 177.778C107.39 178.428 106.75 179.018 105.37 180.268C104.57 177.168 103.81 174.278 103.06 171.388C103.41 171.258 103.77 171.138 104.12 171.008C104.54 171.638 104.96 172.268 105.38 172.898L105.97 172.708C105.78 171.488 105.58 170.278 105.29 168.448C107.06 170.848 108.42 172.748 109.87 174.578C109.99 174.738 110.74 174.388 111.49 174.198C110.97 173.358 110.6 172.738 109.9 171.618C110.98 171.888 111.57 172.038 112.16 172.188C112.42 171.128 112.67 170.058 112.83 169.398C112.24 166.608 111.67 163.918 111.06 161.028C111.04 161.028 110.31 161.148 109.33 161.308C109.61 162.138 109.88 162.928 110.15 163.718C109.86 163.788 109.56 163.858 109.27 163.938C109 162.758 108.35 161.478 108.59 160.418C108.76 159.648 110.13 159.158 111.62 158.048C110.2 158.208 109.67 158.258 108.35 158.408C111.98 155.588 109.23 154.478 107.66 153.068C107.97 153.008 108.29 152.938 108.6 152.878C108.55 151.828 108.53 150.768 108.45 149.718C108.34 148.258 108.32 146.768 108.02 145.348C107.75 144.078 107.17 142.868 106.53 141.108C106.62 141.008 106.89 140.678 107.28 140.228C105.39 140.038 103.74 139.878 102.08 139.718C104.39 139.268 105.22 138.218 104.19 135.488C102.93 135.768 101.52 136.078 100.11 136.398C100.45 137.498 100.8 138.588 101.21 139.898C100.68 139.768 100.01 139.618 98.5102 139.258C102.28 141.938 101.29 144.548 99.4102 148.108C98.4502 142.058 97.6102 136.818 96.7802 131.578C96.5902 131.608 96.4001 131.648 96.2101 131.678C96.1001 133.328 95.9902 134.978 95.8802 136.628L95.0702 136.598C94.7702 135.698 94.4801 134.788 94.1801 133.888C93.8801 132.708 95.6301 131.018 93.2301 130.698C92.9601 128.978 93.0401 127.518 92.4601 126.398C91.9001 125.318 90.6601 124.588 89.5501 123.548C88.7201 124.328 87.5901 125.398 86.4501 126.468C86.3001 126.368 86.1602 126.268 86.0102 126.158C86.6202 125.138 87.2301 124.118 87.8401 123.108L87.4001 122.788C86.0501 124.108 84.7001 125.428 83.0901 126.998C82.1301 125.888 81.2601 124.888 80.4001 123.888C80.5501 123.728 80.6901 123.578 80.8401 123.418C81.2601 123.788 81.6801 124.168 82.4801 124.868C82.9501 123.348 83.3501 122.028 83.8701 120.328C84.3201 121.088 84.5901 121.538 84.8701 121.998C87.1101 118.638 91.6201 117.228 96.0901 117.768C98.1101 118.008 100.26 116.748 102.37 116.688C106.52 116.578 110.45 117.118 114.14 118.178C115.08 88.1678 119.86 58.8278 128.26 30.7178H84.7001C82.9001 30.9178 81.1101 31.1578 79.3401 31.4378C71.2301 62.6878 66.9102 95.4478 66.9102 129.198C66.9102 329.798 219.39 495.438 414.53 516.328C413.12 515.978 411.7 515.628 410.29 515.288C410.19 515.268 410.07 515.278 410 515.228C408.63 514.188 407.27 513.148 405.91 512.108C407.4 511.188 408.81 509.638 410.39 509.448C418.69 508.428 427.01 507.398 435.36 507.058C444.76 506.678 454.2 507.018 463.61 507.108C465.29 507.128 466.09 506.638 466.75 504.928C470.6 494.968 477.67 487.678 487.76 484.448C498.53 481.008 508.93 482.968 518.2 489.978C525.21 495.288 528.71 502.388 529.95 510.908C530.64 510.998 531.32 511.068 532 511.158C562.59 505.108 591.9 495.458 619.47 482.678C620 472.888 620.69 463.108 621.58 453.338C622.19 446.638 622.93 439.828 622.77 433.098C622.74 431.608 622.47 430.208 622.06 428.828ZM106.77 143.568C106.29 145.548 105.92 147.108 105.54 148.678C105.15 148.618 104.77 148.548 104.38 148.488C103.94 147.408 103.5 146.318 103.04 145.198C104.09 144.738 105.11 144.298 106.77 143.568ZM100.14 149.878C100.91 149.758 101.82 149.608 103.1 149.408C99.6802 153.248 104.17 155.208 105.27 158.098C105.48 158.658 105.48 159.298 105.58 159.908C105.33 159.938 105.09 159.978 104.84 160.008C103.98 158.568 103.13 157.128 102.27 155.678C101.97 155.818 101.68 155.958 101.38 156.088C101.3 157.058 101.22 158.018 101.14 158.988C100.87 159.098 100.6 159.198 100.33 159.308C100.22 158.798 100.01 158.288 100.01 157.778C100.02 155.068 100.09 152.358 100.14 149.878ZM90.4102 131.648C89.3802 129.468 88.6301 127.878 87.8102 126.148C91.7201 126.388 92.2602 127.278 90.4102 131.648Z" fill="url(#paint94_linear_20_2)"/>
<path d="M456.27 584.918C394.75 584.918 335.06 572.868 278.88 549.108C224.61 526.158 175.87 493.298 134.02 451.438C119.62 437.038 106.3 421.798 94.0701 405.818C92.2301 407.888 90.0801 409.858 89.0901 412.298C87.3801 416.488 84.9101 415.588 81.6101 414.478C82.0901 413.418 82.4701 412.578 82.8501 411.748C77.1001 411.148 72.2101 406.128 73.6101 402.508C76.8101 405.078 80.0501 407.698 83.3001 410.308C84.2401 409.948 85.1801 409.598 86.1301 409.238C85.3301 403.888 84.5401 398.538 83.6601 392.638C82.9801 392.568 81.2701 392.388 78.5601 392.098C80.1901 391.408 81.0301 391.058 82.4201 390.458C79.6701 388.498 74.5701 388.538 76.8101 382.948C74.5601 381.668 71.9801 380.208 69.3501 378.708C69.7701 385.598 62.9501 380.648 60.8201 383.708C59.5401 381.988 58.4701 380.548 56.5801 377.998C57.6701 382.888 58.4501 386.388 59.4001 390.608C55.3401 388.258 52.4001 386.558 48.7201 384.428C50.4201 384.108 51.1601 383.968 52.3301 383.748C51.5301 382.138 50.7701 380.578 50.1001 379.228C51.9901 377.288 53.7501 375.518 55.4601 373.698C58.8801 370.058 62.8701 367.648 67.0401 366.378C56.7001 349.438 47.4901 331.788 39.4001 313.498C38.8701 314.478 38.3301 315.448 37.7601 316.408C37.3201 317.148 36.7301 317.618 36.0901 317.888C36.2701 334.998 37.9501 352.108 39.5201 369.118C39.8601 372.838 40.2001 376.558 40.5301 380.288C88.8801 460.028 159.49 524.828 243.69 566.008C246.54 562.828 250.32 560.928 254.8 560.088C270.01 557.248 283.06 568.938 282.97 583.108C336.9 603.798 395.43 615.138 456.55 615.138C512.33 615.138 565.95 605.688 615.89 588.308C615.77 580.358 617.26 572.368 619.86 564.478C619.89 564.378 619.94 564.288 619.99 564.188C619.95 561.028 619.88 557.868 619.79 554.718C567.66 574.758 512.74 584.918 456.27 584.918ZM69.2301 400.688C68.6001 400.238 68.0301 399.688 67.3401 399.368C66.2501 398.868 65.0901 398.528 63.5801 397.978C63.7601 397.478 63.9501 396.958 64.1301 396.458C64.1201 396.458 64.1101 396.448 64.0901 396.448C62.8701 396.108 61.5901 395.938 59.9101 395.618C60.3701 393.248 60.8301 390.848 61.2901 388.448C61.8201 388.568 62.3501 388.698 62.8801 388.818C62.5401 390.348 62.2001 391.888 61.4101 395.448C62.6601 394.678 63.4901 393.778 63.9801 393.938C64.2901 394.038 64.5901 394.198 64.8801 394.368C65.2201 393.418 65.5701 392.468 65.9101 391.518C66.3901 391.708 66.8601 391.908 67.3401 392.098C66.9901 392.988 66.6401 393.878 66.0901 395.258C66.3401 395.468 66.5801 395.688 66.8001 395.908C66.9701 396.068 66.5401 396.848 66.3201 397.398C66.9001 397.098 67.3401 396.888 67.6001 397.018C68.5301 397.498 69.2801 398.408 69.9401 399.268C70.0901 399.468 69.4901 400.208 69.2301 400.688Z" fill="url(#paint95_linear_20_2)"/>
<path d="M359.86 131.198C356.04 132.358 353.03 132.758 350.54 134.118C344.23 137.538 338.06 141.248 332.01 145.098C319.98 152.758 307.64 156.448 293.68 150.108C288.85 147.918 283.46 146.958 277.05 145.068C280.94 144.808 283.66 144.618 287.38 144.368C285.19 142.458 283.6 141.078 280.66 138.528C284.6 139.288 286.87 139.548 289.03 140.178C301.2 143.738 311.12 139.888 319.27 130.808C323.94 125.598 328.69 120.348 332.51 114.528C340.45 102.438 351.98 97.7177 365.71 96.8077C369.12 96.5777 372.53 96.3177 377.7 95.9377C362.44 88.3477 349.03 81.0577 335.1 74.9277C322.55 69.4077 308.93 69.8177 295.76 72.0877C284.85 73.9677 276.06 71.5877 268.17 64.0877C265.48 61.5277 262.19 59.5877 259.49 56.6777C252.51 77.7377 248.71 100.238 248.71 123.608C248.71 152.688 254.57 180.418 265.16 205.688C267.74 205.448 270.64 206.168 273.44 207.468C279.3 210.188 282.61 215.818 279.81 222.508C278.87 224.768 277.76 226.898 276.43 228.598C313.11 293.118 382.48 336.738 461.86 336.738C522.08 336.738 576.54 311.628 615.33 271.338C615.29 271.188 615.25 271.048 615.21 270.898C614.62 268.848 615.96 267.178 617.64 266.578C617.6 266.128 617.57 265.688 617.56 265.238C617.5 262.128 618.71 259.478 620.51 257.138C619.35 254.328 619.06 251.088 618.93 248.138C618.57 239.868 619.92 231.628 619.75 223.358C619.73 222.408 619.69 221.458 619.61 220.508C619.51 219.378 619.58 219.728 619.38 218.748C619.23 218.058 619.07 217.388 618.85 216.718C618.83 216.648 618.81 216.608 618.81 216.568C618.79 216.528 618.76 216.468 618.71 216.378C618.59 216.138 618.45 215.908 618.3 215.678C618.3 215.678 618.67 215.968 618.15 215.538C618.12 215.508 618.11 215.498 618.09 215.478C618.06 215.468 618.05 215.458 618.02 215.438C617.98 215.418 617.97 215.408 617.94 215.388C617.86 215.358 617.76 215.338 617.66 215.328C616.54 215.288 615.71 215.508 614.38 216.108C611.74 217.288 607.96 215.318 609.06 212.018C609.4 211.008 609.73 210.008 610.07 208.998C597.48 203.988 587.47 194.748 579.2 182.328C576.36 178.068 572.14 174.738 567.21 169.568C568.68 180.188 569.85 188.588 571.01 196.988C570.74 197.088 570.46 197.188 570.19 197.288C568.81 194.698 567.43 192.108 566.07 189.568C565.34 189.888 564.94 189.998 564.94 190.078C565.56 201.138 561.93 212.758 568.53 223.048C571.92 228.338 575.77 233.388 579.87 238.158C595.21 255.968 594.59 274.898 583.79 295.738C584.33 290.368 584.76 286.128 585.37 280.078C582.7 283.578 581.09 285.668 579.49 287.768C584.96 268.158 574.3 256.688 559.55 247.218C558.76 246.718 558.06 246.068 557.24 245.638C538.95 236.118 528.67 221.458 528.16 200.478C528.14 199.698 527.93 198.918 527.73 198.138C521.87 209.308 515.85 220.818 509.79 232.328C501.27 248.518 498.45 265.728 500.09 283.868C500.95 293.318 501.26 302.828 501.82 312.308C501.19 312.408 500.56 312.518 499.93 312.618C499.3 311.038 498.69 309.448 498.02 307.888C492.51 295.038 487.73 281.818 481.3 269.458C473.36 254.188 471.4 238.708 477.45 222.848C481.8 211.438 482.73 200.858 476.77 189.868C475.63 187.768 476.34 184.678 476.28 183.638C467.94 192.868 458.65 202.698 449.98 213.038C447.28 216.258 446.24 220.858 444.2 225.358C443.66 223.108 443.23 221.258 442.79 219.408C442.03 219.158 441.27 218.908 440.51 218.658C438.08 224.858 434.63 230.858 433.43 237.288C431.35 248.498 430.73 259.978 429.37 271.328C428.18 281.208 425.36 290.448 417.33 297.688C428.82 279.498 421.53 261.998 415.9 244.578C409.37 224.368 408.1 205.138 424.02 188.248C427.06 185.018 429.95 181.658 432.88 178.328C434.25 176.768 435.55 175.148 435.73 174.928C422.61 179.398 408.29 184.428 393.86 189.148C380.59 193.488 369.26 200.978 360.78 211.778C351.65 223.398 340.43 229.948 325.6 230.708C326.63 229.778 327.69 228.808 328.93 227.678C327.67 227.148 326.68 226.728 325.69 226.308C345.07 225.098 348.69 210.158 352.15 195.518C356.77 175.918 368.87 163.258 386.95 155.418C391.64 153.388 395.84 150.228 400.26 147.598C399.91 146.878 399.55 146.158 399.2 145.428C396.23 146.118 393.26 146.808 390.29 147.498C390.18 147.258 390.07 147.008 389.96 146.768C394.7 144.078 399.43 141.388 404.17 138.698C403.8 137.908 403.43 137.128 403.06 136.338L384.16 144.368L383.84 143.638C391.05 139.308 398.26 134.988 405.48 130.658C405.05 129.868 404.62 129.078 404.19 128.288C396.7 132.388 389.22 136.488 381.73 140.578C381.53 140.248 381.33 139.908 381.13 139.578C383.09 137.928 385.05 136.288 387 134.638C386.86 133.928 386.73 133.218 386.59 132.508C376.95 133.398 367.32 134.298 357.9 135.168C357.87 135.138 358.55 133.808 359.86 131.198Z" fill="url(#paint96_linear_20_2)"/>
<path d="M272.86 63.7074C270.48 60.7674 269.2 59.1773 267.7 57.3073C268.62 57.3073 269.21 57.1373 269.39 57.3373C279.01 67.7573 289.27 66.4174 299.99 59.1774C302.88 57.2274 306.11 55.7673 309.06 53.8873C323.7 44.5973 339.61 43.4473 355.5 48.6573C364.44 51.5873 373.15 50.9573 382.04 51.2773C383.07 51.3173 384.13 50.6973 385.4 50.3073C384.73 49.3773 384.44 48.4773 383.92 48.3073C375.78 45.6773 371.44 39.5373 367.61 33.0273C357.35 33.8373 347.09 34.6174 336.81 34.9874C334.62 37.9474 330.9 40.0673 327.41 39.8273C307.31 38.4373 287.19 37.6773 267.06 37.1073C264.25 43.4073 261.74 49.8574 259.55 56.4574C263.45 58.5874 267.41 60.7374 272.86 63.7074Z" fill="url(#paint97_linear_20_2)"/>
<path d="M286.67 347.677C288.33 347.187 290.18 346.927 292.29 346.957C301.33 347.087 307.09 351.307 310.47 359.267C311.34 361.307 311.72 363.217 311.7 365.037C353.8 390.937 403.31 405.887 456.25 405.887C516.66 405.887 572.6 386.417 618.15 353.437C619.76 341.327 620.44 329.067 620.44 316.867C620.44 312.327 620.35 307.757 620.12 303.177C591.04 330.607 556.24 349.937 518.47 360.057C521.12 363.317 522.38 367.247 522.33 371.137C521.68 369.667 521.03 368.217 520.41 366.797C518.27 369.697 515.81 373.017 512.63 377.327C511.11 374.627 510.24 373.077 509.43 371.647C508.75 373.267 507.98 375.107 507.28 376.777C500.35 374.887 494.32 373.237 487.83 371.477C487.77 369.637 488.02 367.797 488.54 366.037C477.91 367.467 467.13 368.207 456.23 368.207C392.38 368.207 332.35 343.347 287.2 298.197C242.05 253.047 217.18 193.017 217.18 129.167C217.18 96.7474 223.6 65.3174 235.82 36.3174C226.49 36.0974 217.15 35.8674 207.82 35.5774C203.87 35.4574 199.93 35.2774 195.98 35.0674C185.32 64.4574 179.5 96.1474 179.5 129.167C179.55 217.907 221.53 297.007 286.67 347.677Z" fill="url(#paint98_linear_20_2)"/>
<path d="M142.07 168.617C139.24 178.217 134.55 186.607 125.94 191.897C124.41 192.837 122.86 193.738 121.29 194.568C151.87 351.578 290.44 470.467 456.27 470.467C516.24 470.467 572.64 454.898 621.67 427.618C620.48 424.258 618.63 421.048 617.6 417.668C614.34 407.018 618.61 396.527 618.4 385.877C617.15 385.797 616.27 385.217 615.76 384.418C615.29 384.798 614.82 385.158 614.37 385.408C610.72 387.397 607.15 382.717 609.98 379.728C612.43 377.138 613.94 373.868 616.03 370.988C616.35 369.018 616.61 367.047 616.87 365.067C616.72 364.687 616.62 364.268 616.62 363.808C616.63 361.718 616.83 359.748 617.54 357.928C617.69 356.948 617.82 355.967 617.95 354.987C571.12 388.667 515.09 406.858 456.26 406.858C404.42 406.858 354.75 392.727 311.63 366.327C311.14 370.717 308.32 374.658 304.15 378.908C304.3 371.237 301.93 367.697 295.84 371.337C295.2 367.777 295.38 362.048 293.86 361.538C288.34 359.708 282.25 359.637 275.66 358.817C277.9 353.837 280.78 349.947 285.39 348.117C276.51 341.158 268 333.628 259.9 325.527C207.45 273.077 178.57 203.348 178.57 129.168C178.57 96.5575 184.16 64.8075 194.87 34.9975C174.55 33.8775 154.3 31.8075 133.98 30.6875H129.48C121.05 58.6175 116.1 88.0275 115.16 118.448C135.88 125.028 148.02 148.447 142.07 168.617Z" fill="url(#paint99_linear_20_2)"/>
<path d="M456.27 367.248C467.36 367.248 478.26 366.468 488.95 364.998C489.98 362.188 491.72 359.608 494.2 357.578C501.29 351.798 511.57 352.598 517.71 359.188C556.64 348.778 591.67 328.738 620.07 301.768C619.51 291.868 618.24 281.998 615.63 272.478C576.67 312.708 522.13 337.758 461.84 337.758C382.22 337.758 312.62 294.078 275.71 229.428C273.17 232.208 269.81 233.438 265.13 231.258C266.57 227.718 270.2 222.998 269.04 220.658C267.18 216.898 262.16 214.708 257.92 211.428C259.25 208.078 261.47 206.388 264.11 205.848C253.53 180.518 247.68 152.738 247.68 123.608C247.68 92.8382 254.22 63.5682 265.95 37.0982C256.31 36.8282 246.67 36.5982 237.03 36.3682C224.9 64.9082 218.18 96.2782 218.18 129.188C218.2 260.448 325 367.248 456.27 367.248Z" fill="url(#paint100_linear_20_2)"/>
<defs>
<linearGradient id="paint0_linear_20_2" x1="65.4111" y1="398.215" x2="65.8228" y2="397.208" gradientUnits="userSpaceOnUse">
<stop offset="1.06556e-08" stop-color="#674E12"/>
<stop offset="1" stop-color="#A27C2C"/>
</linearGradient>
<linearGradient id="paint1_linear_20_2" x1="100.589" y1="606.078" x2="102.752" y2="600.787" gradientUnits="userSpaceOnUse">
<stop offset="1.06556e-08" stop-color="#674E12"/>
<stop offset="1" stop-color="#A27C2C"/>
</linearGradient>
<linearGradient id="paint2_linear_20_2" x1="100.954" y1="618.443" x2="101.883" y2="616.169" gradientUnits="userSpaceOnUse">
<stop offset="1.06556e-08" stop-color="#674E12"/>
<stop offset="1" stop-color="#A27C2C"/>
</linearGradient>
<linearGradient id="paint3_linear_20_2" x1="81.6381" y1="581.17" x2="85.6219" y2="571.423" gradientUnits="userSpaceOnUse">
<stop offset="1.06556e-08" stop-color="#674E12"/>
<stop offset="1" stop-color="#A27C2C"/>
</linearGradient>
<linearGradient id="paint4_linear_20_2" x1="119.901" y1="629.579" x2="135.584" y2="591.209" gradientUnits="userSpaceOnUse">
<stop offset="1.06556e-08" stop-color="#674E12"/>
<stop offset="1" stop-color="#A27C2C"/>
</linearGradient>
<linearGradient id="paint5_linear_20_2" x1="108.294" y1="596.554" x2="108.589" y2="595.833" gradientUnits="userSpaceOnUse">
<stop offset="1.06556e-08" stop-color="#674E12"/>
<stop offset="1" stop-color="#A27C2C"/>
</linearGradient>
<linearGradient id="paint6_linear_20_2" x1="122.166" y1="623.849" x2="126.928" y2="612.199" gradientUnits="userSpaceOnUse">
<stop offset="1.06556e-08" stop-color="#674E12"/>
<stop offset="1" stop-color="#A27C2C"/>
</linearGradient>
<linearGradient id="paint7_linear_20_2" x1="76.1292" y1="614.829" x2="76.5465" y2="613.808" gradientUnits="userSpaceOnUse">
<stop offset="1.06556e-08" stop-color="#674E12"/>
<stop offset="1" stop-color="#A27C2C"/>
</linearGradient>
<linearGradient id="paint8_linear_20_2" x1="66.44" y1="590.699" x2="67.0198" y2="589.281" gradientUnits="userSpaceOnUse">
<stop offset="1.06556e-08" stop-color="#674E12"/>
<stop offset="1" stop-color="#A27C2C"/>
</linearGradient>
<linearGradient id="paint9_linear_20_2" x1="65.0109" y1="607.923" x2="66.0508" y2="605.379" gradientUnits="userSpaceOnUse">
<stop offset="1.06556e-08" stop-color="#674E12"/>
<stop offset="1" stop-color="#A27C2C"/>
</linearGradient>
<linearGradient id="paint10_linear_20_2" x1="67.742" y1="580.185" x2="68.3043" y2="578.809" gradientUnits="userSpaceOnUse">
<stop offset="1.06556e-08" stop-color="#674E12"/>
<stop offset="1" stop-color="#A27C2C"/>
</linearGradient>
<linearGradient id="paint11_linear_20_2" x1="111.33" y1="615.01" x2="111.971" y2="613.441" gradientUnits="userSpaceOnUse">
<stop offset="1.06556e-08" stop-color="#674E12"/>
<stop offset="1" stop-color="#A27C2C"/>
</linearGradient>
<linearGradient id="paint12_linear_20_2" x1="73.0627" y1="613.207" x2="73.4557" y2="612.245" gradientUnits="userSpaceOnUse">
<stop offset="1.06556e-08" stop-color="#674E12"/>
<stop offset="1" stop-color="#A27C2C"/>
</linearGradient>
<linearGradient id="paint13_linear_20_2" x1="74.5113" y1="604.689" x2="76.3807" y2="600.116" gradientUnits="userSpaceOnUse">
<stop offset="1.06556e-08" stop-color="#674E12"/>
<stop offset="1" stop-color="#A27C2C"/>
</linearGradient>
<linearGradient id="paint14_linear_20_2" x1="61.01" y1="549.621" x2="78.6096" y2="506.561" gradientUnits="userSpaceOnUse">
<stop offset="1.06556e-08" stop-color="#674E12"/>
<stop offset="1" stop-color="#A27C2C"/>
</linearGradient>
<linearGradient id="paint15_linear_20_2" x1="117.395" y1="636.161" x2="138.669" y2="584.111" gradientUnits="userSpaceOnUse">
<stop offset="1.06556e-08" stop-color="#674E12"/>
<stop offset="1" stop-color="#A27C2C"/>
</linearGradient>
<linearGradient id="paint16_linear_20_2" x1="80.647" y1="588.39" x2="81.0842" y2="587.321" gradientUnits="userSpaceOnUse">
<stop offset="1.06556e-08" stop-color="#674E12"/>
<stop offset="1" stop-color="#A27C2C"/>
</linearGradient>
<linearGradient id="paint17_linear_20_2" x1="124.017" y1="633.4" x2="139.194" y2="596.266" gradientUnits="userSpaceOnUse">
<stop offset="1.06556e-08" stop-color="#674E12"/>
<stop offset="1" stop-color="#A27C2C"/>
</linearGradient>
<linearGradient id="paint18_linear_20_2" x1="32.9026" y1="544.848" x2="34.7275" y2="540.384" gradientUnits="userSpaceOnUse">
<stop offset="1.06556e-08" stop-color="#674E12"/>
<stop offset="1" stop-color="#A27C2C"/>
</linearGradient>
<linearGradient id="paint19_linear_20_2" x1="79.7542" y1="488.923" x2="80.4637" y2="487.187" gradientUnits="userSpaceOnUse">
<stop offset="1.06556e-08" stop-color="#674E12"/>
<stop offset="1" stop-color="#A27C2C"/>
</linearGradient>
<linearGradient id="paint20_linear_20_2" x1="76.2788" y1="495.163" x2="77.3268" y2="492.598" gradientUnits="userSpaceOnUse">
<stop offset="1.06556e-08" stop-color="#674E12"/>
<stop offset="1" stop-color="#A27C2C"/>
</linearGradient>
<linearGradient id="paint21_linear_20_2" x1="170.996" y1="603.838" x2="172.31" y2="600.622" gradientUnits="userSpaceOnUse">
<stop offset="1.06556e-08" stop-color="#674E12"/>
<stop offset="1" stop-color="#A27C2C"/>
</linearGradient>
<linearGradient id="paint22_linear_20_2" x1="147.506" y1="617.825" x2="152.651" y2="605.238" gradientUnits="userSpaceOnUse">
<stop offset="1.06556e-08" stop-color="#674E12"/>
<stop offset="1" stop-color="#A27C2C"/>
</linearGradient>
<linearGradient id="paint23_linear_20_2" x1="154.309" y1="612.164" x2="159.623" y2="599.163" gradientUnits="userSpaceOnUse">
<stop offset="1.06556e-08" stop-color="#674E12"/>
<stop offset="1" stop-color="#A27C2C"/>
</linearGradient>
<linearGradient id="paint24_linear_20_2" x1="137.244" y1="614.856" x2="138.004" y2="612.997" gradientUnits="userSpaceOnUse">
<stop offset="1.06556e-08" stop-color="#674E12"/>
<stop offset="1" stop-color="#A27C2C"/>
</linearGradient>
<linearGradient id="paint25_linear_20_2" x1="169.617" y1="600.14" x2="170.48" y2="598.027" gradientUnits="userSpaceOnUse">
<stop offset="1.06556e-08" stop-color="#674E12"/>
<stop offset="1" stop-color="#A27C2C"/>
</linearGradient>
<linearGradient id="paint26_linear_20_2" x1="120.407" y1="608.278" x2="120.901" y2="607.071" gradientUnits="userSpaceOnUse">
<stop offset="1.06556e-08" stop-color="#674E12"/>
<stop offset="1" stop-color="#A27C2C"/>
</linearGradient>
<linearGradient id="paint27_linear_20_2" x1="174.427" y1="598.267" x2="176.026" y2="594.355" gradientUnits="userSpaceOnUse">
<stop offset="1.06556e-08" stop-color="#674E12"/>
<stop offset="1" stop-color="#A27C2C"/>
</linearGradient>
<linearGradient id="paint28_linear_20_2" x1="137.979" y1="609.709" x2="139.058" y2="607.069" gradientUnits="userSpaceOnUse">
<stop offset="1.06556e-08" stop-color="#674E12"/>
<stop offset="1" stop-color="#A27C2C"/>
</linearGradient>
<linearGradient id="paint29_linear_20_2" x1="41.834" y1="526.791" x2="42.8429" y2="524.322" gradientUnits="userSpaceOnUse">
<stop offset="1.06556e-08" stop-color="#674E12"/>
<stop offset="1" stop-color="#A27C2C"/>
</linearGradient>
<linearGradient id="paint30_linear_20_2" x1="39.6538" y1="585.688" x2="55.0317" y2="548.064" gradientUnits="userSpaceOnUse">
<stop offset="1.06556e-08" stop-color="#674E12"/>
<stop offset="1" stop-color="#A27C2C"/>
</linearGradient>
<linearGradient id="paint31_linear_20_2" x1="43.4906" y1="558.678" x2="44.5533" y2="556.078" gradientUnits="userSpaceOnUse">
<stop offset="1.06556e-08" stop-color="#674E12"/>
<stop offset="1" stop-color="#A27C2C"/>
</linearGradient>
<linearGradient id="paint32_linear_20_2" x1="47.7081" y1="533.949" x2="49.2785" y2="530.107" gradientUnits="userSpaceOnUse">
<stop offset="1.06556e-08" stop-color="#674E12"/>
<stop offset="1" stop-color="#A27C2C"/>
</linearGradient>
<linearGradient id="paint33_linear_20_2" x1="46.5095" y1="554.632" x2="47.3753" y2="552.514" gradientUnits="userSpaceOnUse">
<stop offset="1.06556e-08" stop-color="#674E12"/>
<stop offset="1" stop-color="#A27C2C"/>
</linearGradient>
<linearGradient id="paint34_linear_20_2" x1="44.937" y1="565.584" x2="45.5126" y2="564.175" gradientUnits="userSpaceOnUse">
<stop offset="1.06556e-08" stop-color="#674E12"/>
<stop offset="1" stop-color="#A27C2C"/>
</linearGradient>
<linearGradient id="paint35_linear_20_2" x1="40.567" y1="593.817" x2="55.0662" y2="558.343" gradientUnits="userSpaceOnUse">
<stop offset="1.06556e-08" stop-color="#674E12"/>
<stop offset="1" stop-color="#A27C2C"/>
</linearGradient>
<linearGradient id="paint36_linear_20_2" x1="107.113" y1="634.807" x2="124.017" y2="593.447" gradientUnits="userSpaceOnUse">
<stop offset="1.06556e-08" stop-color="#674E12"/>
<stop offset="1" stop-color="#A27C2C"/>
</linearGradient>
<linearGradient id="paint37_linear_20_2" x1="43.1809" y1="597.574" x2="51.8901" y2="576.265" gradientUnits="userSpaceOnUse">
<stop offset="1.06556e-08" stop-color="#674E12"/>
<stop offset="1" stop-color="#A27C2C"/>
</linearGradient>
<linearGradient id="paint38_linear_20_2" x1="90.8579" y1="632.31" x2="94.7031" y2="622.902" gradientUnits="userSpaceOnUse">
<stop offset="1.06556e-08" stop-color="#674E12"/>
<stop offset="1" stop-color="#A27C2C"/>
</linearGradient>
<linearGradient id="paint39_linear_20_2" x1="38.8039" y1="606.009" x2="62.8461" y2="547.186" gradientUnits="userSpaceOnUse">
<stop offset="1.06556e-08" stop-color="#674E12"/>
<stop offset="1" stop-color="#A27C2C"/>
</linearGradient>
<linearGradient id="paint40_linear_20_2" x1="58.2509" y1="547.453" x2="78.5534" y2="497.78" gradientUnits="userSpaceOnUse">
<stop offset="1.06556e-08" stop-color="#674E12"/>
<stop offset="1" stop-color="#A27C2C"/>
</linearGradient>
<linearGradient id="paint41_linear_20_2" x1="34.6109" y1="533.711" x2="36.231" y2="529.747" gradientUnits="userSpaceOnUse">
<stop offset="1.06556e-08" stop-color="#674E12"/>
<stop offset="1" stop-color="#A27C2C"/>
</linearGradient>
<linearGradient id="paint42_linear_20_2" x1="49.7016" y1="515.33" x2="50.4479" y2="513.504" gradientUnits="userSpaceOnUse">
<stop offset="1.06556e-08" stop-color="#674E12"/>
<stop offset="1" stop-color="#A27C2C"/>
</linearGradient>
<linearGradient id="paint43_linear_20_2" x1="54.5643" y1="579.662" x2="55.1371" y2="578.261" gradientUnits="userSpaceOnUse">
<stop offset="1.06556e-08" stop-color="#674E12"/>
<stop offset="1" stop-color="#A27C2C"/>
</linearGradient>
<linearGradient id="paint44_linear_20_2" x1="61.189" y1="599.404" x2="61.8255" y2="597.846" gradientUnits="userSpaceOnUse">
<stop offset="1.06556e-08" stop-color="#674E12"/>
<stop offset="1" stop-color="#A27C2C"/>
</linearGradient>
<linearGradient id="paint45_linear_20_2" x1="58.5302" y1="607.278" x2="59.4265" y2="605.085" gradientUnits="userSpaceOnUse">
<stop offset="1.06556e-08" stop-color="#674E12"/>
<stop offset="1" stop-color="#A27C2C"/>
</linearGradient>
<linearGradient id="paint46_linear_20_2" x1="61.547" y1="559.347" x2="63.1319" y2="555.469" gradientUnits="userSpaceOnUse">
<stop offset="1.06556e-08" stop-color="#674E12"/>
<stop offset="1" stop-color="#A27C2C"/>
</linearGradient>
<linearGradient id="paint47_linear_20_2" x1="61.9352" y1="502.6" x2="62.538" y2="501.125" gradientUnits="userSpaceOnUse">
<stop offset="1.06556e-08" stop-color="#674E12"/>
<stop offset="1" stop-color="#A27C2C"/>
</linearGradient>
<linearGradient id="paint48_linear_20_2" x1="57.6299" y1="508.361" x2="58.4014" y2="506.473" gradientUnits="userSpaceOnUse">
<stop offset="1.06556e-08" stop-color="#674E12"/>
<stop offset="1" stop-color="#A27C2C"/>
</linearGradient>
<linearGradient id="paint49_linear_20_2" x1="47.8717" y1="581.296" x2="50.8153" y2="574.094" gradientUnits="userSpaceOnUse">
<stop offset="1.06556e-08" stop-color="#674E12"/>
<stop offset="1" stop-color="#A27C2C"/>
</linearGradient>
<linearGradient id="paint50_linear_20_2" x1="49.6602" y1="568.915" x2="50.3454" y2="567.238" gradientUnits="userSpaceOnUse">
<stop offset="1.06556e-08" stop-color="#674E12"/>
<stop offset="1" stop-color="#A27C2C"/>
</linearGradient>
<linearGradient id="paint51_linear_20_2" x1="51.3746" y1="576.123" x2="52.7605" y2="572.732" gradientUnits="userSpaceOnUse">
<stop offset="1.06556e-08" stop-color="#674E12"/>
<stop offset="1" stop-color="#A27C2C"/>
</linearGradient>
<linearGradient id="paint52_linear_20_2" x1="53.7062" y1="549.168" x2="54.301" y2="547.713" gradientUnits="userSpaceOnUse">
<stop offset="1.06556e-08" stop-color="#674E12"/>
<stop offset="1" stop-color="#A27C2C"/>
</linearGradient>
<linearGradient id="paint53_linear_20_2" x1="52.6915" y1="561.408" x2="53.2668" y2="560" gradientUnits="userSpaceOnUse">
<stop offset="1.06556e-08" stop-color="#674E12"/>
<stop offset="1" stop-color="#A27C2C"/>
</linearGradient>
<linearGradient id="paint54_linear_20_2" x1="52.5822" y1="509.87" x2="53.2669" y2="508.195" gradientUnits="userSpaceOnUse">
<stop offset="1.06556e-08" stop-color="#674E12"/>
<stop offset="1" stop-color="#A27C2C"/>
</linearGradient>
<linearGradient id="paint55_linear_20_2" x1="23.1586" y1="660.13" x2="660.228" y2="23.057" gradientUnits="userSpaceOnUse">
<stop offset="1.49178e-07" stop-color="#EE4036"/>
<stop offset="1" stop-color="#FAAF40"/>
</linearGradient>
<linearGradient id="paint56_linear_20_2" x1="416.396" y1="227.189" x2="456.217" y2="158.217" gradientUnits="userSpaceOnUse">
<stop offset="1.06556e-08" stop-color="#674E12"/>
<stop offset="1" stop-color="#A27C2C"/>
</linearGradient>
<linearGradient id="paint57_linear_20_2" x1="607.064" y1="86.3095" x2="615.529" y2="71.6478" gradientUnits="userSpaceOnUse">
<stop offset="1.06556e-08" stop-color="#674E12"/>
<stop offset="1" stop-color="#A27C2C"/>
</linearGradient>
<linearGradient id="paint58_linear_20_2" x1="601.254" y1="48.4306" x2="612.57" y2="28.8314" gradientUnits="userSpaceOnUse">
<stop offset="1.06556e-08" stop-color="#674E12"/>
<stop offset="1" stop-color="#A27C2C"/>
</linearGradient>
<linearGradient id="paint59_linear_20_2" x1="527.519" y1="197.665" x2="527.554" y2="197.605" gradientUnits="userSpaceOnUse">
<stop offset="1.06556e-08" stop-color="#674E12"/>
<stop offset="1" stop-color="#A27C2C"/>
</linearGradient>
<linearGradient id="paint60_linear_20_2" x1="601.441" y1="168.683" x2="616.227" y2="143.073" gradientUnits="userSpaceOnUse">
<stop offset="1.06556e-08" stop-color="#674E12"/>
<stop offset="1" stop-color="#A27C2C"/>
</linearGradient>
<linearGradient id="paint61_linear_20_2" x1="472.088" y1="250.053" x2="512.256" y2="180.48" gradientUnits="userSpaceOnUse">
<stop offset="1.06556e-08" stop-color="#674E12"/>
<stop offset="1" stop-color="#A27C2C"/>
</linearGradient>
<linearGradient id="paint62_linear_20_2" x1="546.043" y1="224.985" x2="559.037" y2="202.479" gradientUnits="userSpaceOnUse">
<stop offset="1.06556e-08" stop-color="#674E12"/>
<stop offset="1" stop-color="#A27C2C"/>
</linearGradient>
<linearGradient id="paint63_linear_20_2" x1="539.231" y1="174.992" x2="544.217" y2="166.354" gradientUnits="userSpaceOnUse">
<stop offset="1.06556e-08" stop-color="#674E12"/>
<stop offset="1" stop-color="#A27C2C"/>
</linearGradient>
<linearGradient id="paint64_linear_20_2" x1="553.731" y1="111.196" x2="588.22" y2="51.4598" gradientUnits="userSpaceOnUse">
<stop offset="1.06556e-08" stop-color="#674E12"/>
<stop offset="1" stop-color="#A27C2C"/>
</linearGradient>
<linearGradient id="paint65_linear_20_2" x1="459.583" y1="141.304" x2="500.867" y2="69.7982" gradientUnits="userSpaceOnUse">
<stop offset="1.06556e-08" stop-color="#674E12"/>
<stop offset="1" stop-color="#A27C2C"/>
</linearGradient>
<linearGradient id="paint66_linear_20_2" x1="352.783" y1="77.2136" x2="371.896" y2="44.1076" gradientUnits="userSpaceOnUse">
<stop offset="1.06556e-08" stop-color="#674E12"/>
<stop offset="1" stop-color="#A27C2C"/>
</linearGradient>
<linearGradient id="paint67_linear_20_2" x1="355.699" y1="140.042" x2="389.766" y2="81.0366" gradientUnits="userSpaceOnUse">
<stop offset="1.06556e-08" stop-color="#674E12"/>
<stop offset="1" stop-color="#A27C2C"/>
</linearGradient>
<linearGradient id="paint68_linear_20_2" x1="393.665" y1="36.2328" x2="399.515" y2="26.1002" gradientUnits="userSpaceOnUse">
<stop offset="1.06556e-08" stop-color="#674E12"/>
<stop offset="1" stop-color="#A27C2C"/>
</linearGradient>
<linearGradient id="paint69_linear_20_2" x1="606.557" y1="80.8326" x2="618.094" y2="60.8491" gradientUnits="userSpaceOnUse">
<stop offset="1.06556e-08" stop-color="#674E12"/>
<stop offset="1" stop-color="#A27C2C"/>
</linearGradient>
<linearGradient id="paint70_linear_20_2" x1="380.156" y1="200.99" x2="419.947" y2="132.07" gradientUnits="userSpaceOnUse">
<stop offset="1.06556e-08" stop-color="#674E12"/>
<stop offset="1" stop-color="#A27C2C"/>
</linearGradient>
<linearGradient id="paint71_linear_20_2" x1="584.369" y1="181.787" x2="600.708" y2="153.488" gradientUnits="userSpaceOnUse">
<stop offset="1.06556e-08" stop-color="#674E12"/>
<stop offset="1" stop-color="#A27C2C"/>
</linearGradient>
<linearGradient id="paint72_linear_20_2" x1="600.268" y1="114.498" x2="603.785" y2="108.406" gradientUnits="userSpaceOnUse">
<stop offset="1.06556e-08" stop-color="#674E12"/>
<stop offset="1" stop-color="#A27C2C"/>
</linearGradient>
<linearGradient id="paint73_linear_20_2" x1="514.296" y1="154.171" x2="531.323" y2="124.678" gradientUnits="userSpaceOnUse">
<stop offset="1.06556e-08" stop-color="#674E12"/>
<stop offset="1" stop-color="#A27C2C"/>
</linearGradient>
<linearGradient id="paint74_linear_20_2" x1="620.141" y1="46.0999" x2="620.611" y2="45.2852" gradientUnits="userSpaceOnUse">
<stop offset="1.06556e-08" stop-color="#674E12"/>
<stop offset="1" stop-color="#A27C2C"/>
</linearGradient>
<linearGradient id="paint75_linear_20_2" x1="597.496" y1="127.498" x2="604.354" y2="115.62" gradientUnits="userSpaceOnUse">
<stop offset="1.06556e-08" stop-color="#674E12"/>
<stop offset="1" stop-color="#A27C2C"/>
</linearGradient>
<linearGradient id="paint76_linear_20_2" x1="533.23" y1="523.162" x2="536.598" y2="517.327" gradientUnits="userSpaceOnUse">
<stop offset="1.06556e-08" stop-color="#674E12"/>
<stop offset="1" stop-color="#A27C2C"/>
</linearGradient>
<linearGradient id="paint77_linear_20_2" x1="507.359" y1="511.92" x2="510.826" y2="505.914" gradientUnits="userSpaceOnUse">
<stop offset="1.06556e-08" stop-color="#674E12"/>
<stop offset="1" stop-color="#A27C2C"/>
</linearGradient>
<linearGradient id="paint78_linear_20_2" x1="535.258" y1="517.178" x2="538.186" y2="512.106" gradientUnits="userSpaceOnUse">
<stop offset="1.06556e-08" stop-color="#674E12"/>
<stop offset="1" stop-color="#A27C2C"/>
</linearGradient>
<linearGradient id="paint79_linear_20_2" x1="504.737" y1="508.606" x2="505.658" y2="507.011" gradientUnits="userSpaceOnUse">
<stop offset="1.06556e-08" stop-color="#674E12"/>
<stop offset="1" stop-color="#A27C2C"/>
</linearGradient>
<linearGradient id="paint80_linear_20_2" x1="476.779" y1="522.594" x2="479.406" y2="518.043" gradientUnits="userSpaceOnUse">
<stop offset="1.06556e-08" stop-color="#674E12"/>
<stop offset="1" stop-color="#A27C2C"/>
</linearGradient>
<linearGradient id="paint81_linear_20_2" x1="571.276" y1="523.22" x2="573.111" y2="520.041" gradientUnits="userSpaceOnUse">
<stop offset="1.06556e-08" stop-color="#674E12"/>
<stop offset="1" stop-color="#A27C2C"/>
</linearGradient>
<linearGradient id="paint82_linear_20_2" x1="549.106" y1="518.735" x2="551.797" y2="514.073" gradientUnits="userSpaceOnUse">
<stop offset="1.06556e-08" stop-color="#674E12"/>
<stop offset="1" stop-color="#A27C2C"/>
</linearGradient>
<linearGradient id="paint83_linear_20_2" x1="494.286" y1="525.192" x2="504.736" y2="507.092" gradientUnits="userSpaceOnUse">
<stop offset="1.06556e-08" stop-color="#674E12"/>
<stop offset="1" stop-color="#A27C2C"/>
</linearGradient>
<linearGradient id="paint84_linear_20_2" x1="538.59" y1="536.607" x2="552.477" y2="512.554" gradientUnits="userSpaceOnUse">
<stop offset="1.06556e-08" stop-color="#674E12"/>
<stop offset="1" stop-color="#A27C2C"/>
</linearGradient>
<linearGradient id="paint85_linear_20_2" x1="498.688" y1="525.022" x2="502.038" y2="519.221" gradientUnits="userSpaceOnUse">
<stop offset="1.06556e-08" stop-color="#674E12"/>
<stop offset="1" stop-color="#A27C2C"/>
</linearGradient>
<linearGradient id="paint86_linear_20_2" x1="461.977" y1="531.988" x2="474.346" y2="510.564" gradientUnits="userSpaceOnUse">
<stop offset="1.06556e-08" stop-color="#674E12"/>
<stop offset="1" stop-color="#A27C2C"/>
</linearGradient>
<linearGradient id="paint87_linear_20_2" x1="526.98" y1="530.839" x2="536.893" y2="513.669" gradientUnits="userSpaceOnUse">
<stop offset="1.06556e-08" stop-color="#674E12"/>
<stop offset="1" stop-color="#A27C2C"/>
</linearGradient>
<linearGradient id="paint88_linear_20_2" x1="460.818" y1="520.564" x2="464.131" y2="514.826" gradientUnits="userSpaceOnUse">
<stop offset="1.06556e-08" stop-color="#674E12"/>
<stop offset="1" stop-color="#A27C2C"/>
</linearGradient>
<linearGradient id="paint89_linear_20_2" x1="428.204" y1="516.036" x2="433.943" y2="506.094" gradientUnits="userSpaceOnUse">
<stop offset="1.06556e-08" stop-color="#674E12"/>
<stop offset="1" stop-color="#A27C2C"/>
</linearGradient>
<linearGradient id="paint90_linear_20_2" x1="459.452" y1="516.474" x2="462.067" y2="511.945" gradientUnits="userSpaceOnUse">
<stop offset="1.06556e-08" stop-color="#674E12"/>
<stop offset="1" stop-color="#A27C2C"/>
</linearGradient>
<linearGradient id="paint91_linear_20_2" x1="445.818" y1="513.095" x2="449.567" y2="506.602" gradientUnits="userSpaceOnUse">
<stop offset="1.06556e-08" stop-color="#674E12"/>
<stop offset="1" stop-color="#A27C2C"/>
</linearGradient>
<linearGradient id="paint92_linear_20_2" x1="172.192" y1="715.045" x2="487.011" y2="-55.2081" gradientUnits="userSpaceOnUse">
<stop offset="1.06556e-08" stop-color="#674E12"/>
<stop offset="1" stop-color="#A27C2C"/>
</linearGradient>
<linearGradient id="paint93_linear_20_2" x1="237.258" y1="530.999" x2="389.394" y2="158.776" gradientUnits="userSpaceOnUse">
<stop offset="1.06556e-08" stop-color="#674E12"/>
<stop offset="1" stop-color="#A27C2C"/>
</linearGradient>
<linearGradient id="paint94_linear_20_2" x1="262.167" y1="470.476" x2="397.016" y2="140.548" gradientUnits="userSpaceOnUse">
<stop offset="1.06556e-08" stop-color="#674E12"/>
<stop offset="1" stop-color="#A27C2C"/>
</linearGradient>
<linearGradient id="paint95_linear_20_2" x1="274.262" y1="579.555" x2="333.821" y2="433.833" gradientUnits="userSpaceOnUse">
<stop offset="1.06556e-08" stop-color="#674E12"/>
<stop offset="1" stop-color="#A27C2C"/>
</linearGradient>
<linearGradient id="paint96_linear_20_2" x1="374.569" y1="318.18" x2="454.182" y2="123.396" gradientUnits="userSpaceOnUse">
<stop offset="1.06556e-08" stop-color="#674E12"/>
<stop offset="1" stop-color="#A27C2C"/>
</linearGradient>
<linearGradient id="paint97_linear_20_2" x1="311.537" y1="79.5209" x2="335.845" y2="20.0477" gradientUnits="userSpaceOnUse">
<stop offset="1.70489e-07" stop-color="#A27C2C"/>
<stop offset="1" stop-color="#674E12"/>
</linearGradient>
<linearGradient id="paint98_linear_20_2" x1="332.24" y1="377.419" x2="437.901" y2="118.903" gradientUnits="userSpaceOnUse">
<stop offset="1.06556e-08" stop-color="#674E12"/>
<stop offset="1" stop-color="#A27C2C"/>
</linearGradient>
<linearGradient id="paint99_linear_20_2" x1="293.015" y1="431.151" x2="417.701" y2="126.086" gradientUnits="userSpaceOnUse">
<stop offset="1.06556e-08" stop-color="#674E12"/>
<stop offset="1" stop-color="#A27C2C"/>
</linearGradient>
<linearGradient id="paint100_linear_20_2" x1="356.412" y1="345.552" x2="451.496" y2="112.916" gradientUnits="userSpaceOnUse">
<stop offset="1.06556e-08" stop-color="#674E12"/>
<stop offset="1" stop-color="#A27C2C"/>
</linearGradient>
</defs>
</svg>
